<svg width="36" height="36" viewBox="0 0 36 36" version="1.1" xmlns="http://www.w3.org/2000/svg" xmlns:xlink="http://www.w3.org/1999/xlink">
<title>icon</title>
<desc>Created using Figma</desc>
<g id="Canvas" transform="translate(-283 -615)">
<g id="icon">
<g id="Rectangle">
<use xlink:href="#path0_fill" transform="translate(283 616)" fill="#FFFFFF"/>
</g>
<g id="Rectangle">
<use xlink:href="#path0_fill" transform="matrix(6.12323e-17 -1 1 6.12323e-17 283 619)" fill="#FFFFFF"/>
</g>
<g id="Rectangle">
<use xlink:href="#path0_fill" transform="matrix(-1 0 0 1 318 616)" fill="#FFFFFF"/>
</g>
<g id="Rectangle">
<use xlink:href="#path1_fill" transform="matrix(0.00253485 -0.999997 -0.999997 -0.00253485 317.996 619.019)" fill="#FFFFFF"/>
</g>
<g id="Rectangle">
<use xlink:href="#path0_fill" transform="matrix(1 0 0 -1 283 651)" fill="#FFFFFF"/>
</g>
<g id="Rectangle">
<use xlink:href="#path0_fill" transform="matrix(6.12323e-17 1 1 -6.12323e-17 283 648)" fill="#FFFFFF"/>
</g>
<g id="Rectangle">
<use xlink:href="#path0_fill" transform="matrix(-1 0 0 -1 318 651)" fill="#FFFFFF"/>
</g>
<g id="Rectangle">
<use xlink:href="#path0_fill" transform="matrix(-6.12323e-17 1 -1 -6.12323e-17 318 648)" fill="#FFFFFF"/>
</g>
</g>
</g>
<defs>
<path id="path0_fill" d="M 0 0L 3 0L 3 10L 0 10L 0 0Z"/>
<path id="path1_fill" d="M 0 0L 3 0L 3 10.001L 0 10.001L 0 0Z"/>
</defs>
</svg>
