<svg width="202" height="33" viewBox="0 0 202 33" version="1.1" xmlns="http://www.w3.org/2000/svg" xmlns:xlink="http://www.w3.org/1999/xlink">
<title>Group</title>
<desc>Created using Figma</desc>
<g id="Canvas" transform="translate(-1188 -49)">
<g id="Group">
<g id="Group">
<g id="Vector">
<use xlink:href="#path0_fill" transform="translate(1188 49.722)"/>
</g>
<g id="Vector">
<use xlink:href="#path1_fill" transform="translate(1221.31 49.722)"/>
</g>
<g id="Vector">
<use xlink:href="#path2_fill" transform="translate(1232.1 49.0578)"/>
</g>
<g id="Vector">
<use xlink:href="#path3_fill" transform="translate(1252.11 49.722)"/>
</g>
<g id="Vector">
<use xlink:href="#path4_fill" transform="translate(1308.61 59.7428)"/>
</g>
<g id="Vector">
<use xlink:href="#path5_fill" transform="translate(1341.42 59.7139)"/>
</g>
<g id="Vector">
<use xlink:href="#path6_fill" transform="translate(1359.88 59.7716)"/>
</g>
<g id="Vector">
<use xlink:href="#path7_fill" transform="translate(1373.8 59.7428)"/>
</g>
</g>
<g id="Group">
<g id="Group">
<g id="Vector">
<use xlink:href="#path8_fill" transform="translate(1279.33 49)" fill="#8547AD"/>
</g>
<g id="Vector">
<use xlink:href="#path9_fill" transform="translate(1308.61 49.953)" fill="#8547AD"/>
</g>
<g id="Vector">
<use xlink:href="#path10_fill" transform="translate(1315.66 49.9819)" fill="#8547AD"/>
</g>
<g id="Vector">
<use xlink:href="#path11_fill" transform="translate(1318.26 49.9241)" fill="#8547AD"/>
</g>
<g id="Vector">
<use xlink:href="#path12_fill" transform="translate(1322.65 49.9819)" fill="#8547AD"/>
</g>
<g id="Vector">
<use xlink:href="#path13_fill" transform="translate(1329.23 51.9456)" fill="#8547AD"/>
</g>
<g id="Vector">
<use xlink:href="#path14_fill" transform="translate(1333.29 51.9745)" fill="#8547AD"/>
</g>
<g id="Vector">
<use xlink:href="#path15_fill" transform="translate(1336.48 51.9745)" fill="#8547AD"/>
</g>
<g id="Vector">
<use xlink:href="#path16_fill" transform="translate(1340.43 52.09)" fill="#8547AD"/>
</g>
<g id="Vector">
<use xlink:href="#path17_fill" transform="translate(1345.11 51.9456)" fill="#8547AD"/>
</g>
<g id="Vector">
<use xlink:href="#path18_fill" transform="translate(1349.73 49.9819)" fill="#8547AD"/>
</g>
<g id="Vector">
<use xlink:href="#path19_fill" transform="translate(1356.05 50.5883)" fill="#8547AD"/>
</g>
<g id="Vector">
<use xlink:href="#path20_fill" transform="translate(1359.38 49.9819)" fill="#8547AD"/>
</g>
<g id="Vector">
<use xlink:href="#path21_fill" transform="translate(1364.06 51.9456)" fill="#8547AD"/>
</g>
<g id="Vector">
<use xlink:href="#path22_fill" transform="translate(1369.62 51.9745)" fill="#8547AD"/>
</g>
<g id="Vector">
<use xlink:href="#path23_fill" transform="translate(1375.84 51.9745)" fill="#8547AD"/>
</g>
<g id="Vector">
<use xlink:href="#path24_fill" transform="translate(1379.97 51.9745)" fill="#8547AD"/>
</g>
<g id="Vector">
<use xlink:href="#path25_fill" transform="translate(1383.01 49.9819)" fill="#8547AD"/>
</g>
<g id="Vector">
<use xlink:href="#path26_fill" transform="translate(1385.35 49.9819)" fill="#8547AD"/>
</g>
</g>
</g>
</g>
</g>
<defs>
<path id="path0_fill" d="M 25.2098 -1.37703e-08L 31.4976 -1.37703e-08L 31.4976 0.433176L 28.807 1.12626L 28.807 30.0047L 31.4976 30.6689L 31.4976 31.102L 22.2852 31.102L 22.2852 30.6689L 24.9758 30.0047L 24.9758 3.78307L 15.2955 31.7662L 14.6228 31.7662L 3.83119 3.78307L 3.83119 29.5426L 6.75575 30.6689L 6.75575 31.102L 0 31.102L 0 30.6689L 2.92457 29.5426L 2.92457 1.32841L 0 0.433176L 0 -1.37703e-08L 6.52179 -1.37703e-08L 16.3776 25.5574L 25.2098 -1.37703e-08Z"/>
<path id="path1_fill" d="M 6.52179 30.0047L 9.21239 30.6689L 9.21239 31.102L 4.46254e-07 31.102L 4.46254e-07 30.6689L 2.6906 30.0047L 2.6906 1.12626L 4.46254e-07 0.462054L 4.46254e-07 -1.37703e-08L 9.21239 -1.37703e-08L 9.21239 0.462054L 6.52179 1.12626L 6.52179 30.0047Z"/>
<path id="path2_fill" d="M 11.0256 0.89523C 10.1775 0.89523 9.35862 1.12626 8.53974 1.61719C 7.72086 2.10812 7.01897 2.91672 6.37556 4.07185C 5.73216 5.25587 5.23498 6.8153 4.85478 8.77903C 4.47459 10.7428 4.26987 13.2263 4.26987 16.2297C 4.26987 19.233 4.47459 21.7166 4.85478 23.6803C 5.23498 25.644 5.7614 27.2323 6.43405 28.3875C 7.10671 29.5715 7.86709 30.3801 8.74446 30.8421C 9.62183 31.3042 10.5285 31.5641 11.4936 31.5641C 12.2832 31.5641 13.0728 31.3619 13.8917 30.9288C 14.7106 30.5245 15.4417 29.9469 16.1144 29.1961C 16.787 28.4452 17.3719 27.5789 17.8106 26.5681C 18.2786 25.5574 18.571 24.4889 18.688 23.3337L 19.3606 23.3337C 19.2437 24.6622 18.9512 25.875 18.454 27.0013C 17.9861 28.0987 17.3719 29.0805 16.6408 29.8891C 15.9097 30.6977 15.0615 31.3331 14.0964 31.7662C 13.1313 32.1994 12.1077 32.4304 11.0549 32.4304C 9.65108 32.4304 8.27653 32.0839 6.96048 31.4197C 5.64442 30.7555 4.47459 29.7447 3.42175 28.3875C 2.3689 27.0302 1.55002 25.3552 0.935862 23.3337C 0.321703 21.3123 8.92508e-07 18.9153 8.92508e-07 16.2008C 8.92508e-07 13.4862 0.321703 11.0893 0.935862 9.06782C 1.55002 7.04633 2.3689 5.3425 3.36326 4.0141C 4.35761 2.65681 5.49819 1.64607 6.75575 0.981865C 8.01332 0.346541 9.27089 0 10.5869 0C 11.3181 0 11.9615 0.115514 12.5464 0.346541C 13.1313 0.577568 13.6285 0.837473 14.0672 1.15514C 14.5351 1.4728 14.9738 1.84822 15.3247 2.25251C 15.5587 1.81934 15.8804 1.38616 16.2899 0.981865C 16.6993 0.577568 17.138 0.317662 17.5767 0.202149L 18.2493 0.202149C 18.1908 0.635325 18.1323 1.09738 18.1031 1.53056C 18.0738 1.93485 18.0446 2.36803 18.0446 2.83008C 18.0153 3.29214 18.0153 3.75419 18.0153 4.18737C 18.0153 4.6783 18.0153 5.19811 18.0446 5.68904C 18.0738 6.17998 18.0738 6.64203 18.1031 7.04633C 18.1323 7.50838 18.1616 7.97044 18.2493 8.43249L 17.5767 8.43249C 16.8748 5.97783 15.9681 4.10073 14.7983 2.8012C 13.6285 1.53055 12.3709 0.89523 11.0256 0.89523Z"/>
<path id="path3_fill" d="M 15.5587 30.2068C 15.5587 28.965 15.8219 27.8099 16.3191 26.7414C 16.8163 25.6729 17.4597 24.7488 18.2493 23.9979L 18.688 23.9979C 18.6295 24.3734 18.571 24.7777 18.5418 25.2108C 18.5125 25.5574 18.4833 25.9617 18.4833 26.366C 18.454 26.7703 18.454 27.1746 18.454 27.5789C 18.454 28.1276 18.454 28.6474 18.4833 29.0805C 18.5125 29.5137 18.5125 29.8891 18.5418 30.2068C 18.571 30.5533 18.6295 30.871 18.688 31.1309L -8.92508e-07 31.1309L -8.92508e-07 30.6977L 2.6906 30.0335L 2.6906 1.12626L -8.92508e-07 0.462054L -8.92508e-07 -1.37703e-08L 18.2201 -1.37703e-08C 18.1616 0.259906 18.1031 0.577568 18.0738 0.924109C 18.0446 1.24177 18.0153 1.61719 18.0153 2.05037C 17.9861 2.48354 17.9861 2.97447 17.9861 3.55204C 17.9861 3.95634 17.9861 4.36064 18.0153 4.76494C 18.0446 5.16923 18.0446 5.54465 18.0738 5.89119C 18.1031 6.29549 18.1616 6.69979 18.2201 7.10409L 17.7814 7.10409C 16.9917 6.32437 16.3483 5.42914 15.8512 4.36064C 15.354 3.29214 15.0908 2.137 15.0908 0.89523L 6.55104 0.89523L 6.55104 14.237L 10.8209 14.237L 12.8389 10.2518L 13.2775 10.2518L 13.2775 19.1464L 12.8389 19.1464L 10.8209 15.1612L 6.55104 15.1612L 6.55104 30.2646L 15.5587 30.2646L 15.5587 30.2068Z"/>
<path id="path4_fill" d="M 2.69061 19.9838L 2.69061 1.76158L -1.78502e-06 1.09738L -1.78502e-06 0.664203L 6.28782 0.664203L 6.28782 3.32102C 6.58028 2.71457 6.98972 2.19476 7.51615 1.67495C 7.92558 1.27065 8.48125 0.866352 9.12466 0.519811C 9.79731 0.17327 10.5577 0 11.4643 0C 12.6049 0 13.5408 0.202149 14.2719 0.635325C 15.003 1.03962 15.588 1.50168 16.0559 2.02149C 16.5823 2.62793 17.021 3.29214 17.3135 4.0141C 17.6936 3.26326 18.1616 2.59906 18.7172 2.02149C 19.1852 1.53055 19.7701 1.0685 20.472 0.635325C 21.1739 0.231027 21.9928 0 22.9579 0C 23.8645 0 24.6834 0.173271 25.4438 0.490933C 26.2041 0.808595 26.8768 1.27065 27.4617 1.84822C 28.0174 2.42579 28.4561 3.11887 28.7778 3.92746C 29.0995 4.73606 29.2457 5.66016 29.2457 6.67091L 29.2457 20.0127L 31.9363 20.6769L 31.9363 21.1101L 23.1626 21.1101L 23.1626 20.6769L 25.6485 20.0127L 25.6485 6.64203C 25.6485 4.53391 25.2975 3.06111 24.6541 2.16588C 23.9815 1.29953 23.1918 0.866352 22.2852 0.866352C 21.5248 0.866352 20.8814 1.0685 20.355 1.50168C 19.8286 1.90597 19.3607 2.36803 18.9512 2.88784C 18.5125 3.49429 18.1031 4.15849 17.7814 4.88045L 17.7814 19.9838L 20.238 20.6481L 20.238 21.0812L 11.6983 21.0812L 11.6983 20.6481L 14.1842 19.9838L 14.1842 6.64203C 14.1842 4.53391 13.8332 3.06111 13.1606 2.16588C 12.4879 1.29953 11.6983 0.866352 10.7917 0.866352C 10.0313 0.866352 9.38787 1.0685 8.86145 1.50168C 8.30578 1.90597 7.86709 2.36803 7.45765 2.88784C 7.01896 3.49429 6.60953 4.15849 6.28782 4.88045L 6.28782 19.9838L 8.77371 20.6481L 8.77371 21.0812L -1.78502e-06 21.0812L -1.78502e-06 20.6481L 2.69061 19.9838Z"/>
<path id="path5_fill" d="M 8.569 4.40649e-07C 9.68033 4.40649e-07 10.7624 0.231028 11.786 0.72196C 12.8389 1.21289 13.7455 1.93485 14.5351 2.85896C 15.3247 3.78307 15.9681 4.9382 16.4361 6.26661C 16.904 7.6239 17.138 9.15445 17.138 10.8583C 17.138 12.5621 16.904 14.1215 16.4361 15.4499C 15.9681 16.8072 15.354 17.9335 14.5351 18.8576C 13.7455 19.7817 12.8389 20.5037 11.786 20.9946C 10.7624 21.4855 9.68033 21.7166 8.569 21.7166C 7.42841 21.7166 6.34631 21.4855 5.32271 20.9946C 4.29911 20.5037 3.3925 19.7817 2.60287 18.8576C 1.81323 17.9335 1.16983 16.7783 0.701897 15.4499C 0.233966 14.0927 -7.14006e-06 12.5621 -7.14006e-06 10.8583C -7.14006e-06 9.15445 0.233966 7.59502 0.701897 6.26661C 1.16983 4.90933 1.78399 3.78307 2.60287 2.85896C 3.3925 1.93485 4.29911 1.21289 5.32271 0.72196C 6.34631 0.259906 7.42841 4.40649e-07 8.569 4.40649e-07ZM 8.569 0.664203C 8.07182 0.664203 7.54538 0.837473 7.01896 1.18401C 6.49254 1.53055 6.02462 2.07924 5.58593 2.85896C 5.14725 3.63868 4.79629 4.6783 4.50384 5.97783C 4.21138 7.27735 4.09439 8.92342 4.09439 10.8583C 4.09439 12.822 4.24063 14.4392 4.50384 15.7387C 4.79629 17.0383 5.14725 18.0779 5.58593 18.8576C 6.02462 19.6373 6.49254 20.2149 7.01896 20.5325C 7.54538 20.8791 8.07182 21.0523 8.569 21.0523C 9.09542 21.0523 9.59259 20.8791 10.119 20.5325C 10.6454 20.186 11.1134 19.6373 11.552 18.8576C 11.9907 18.0779 12.3417 17.0383 12.6341 15.7387C 12.9266 14.4392 13.0728 12.7931 13.0728 10.8583C 13.0728 8.89454 12.9266 7.27735 12.6341 5.97783C 12.3417 4.6783 11.9907 3.63868 11.552 2.85896C 11.1134 2.07924 10.6454 1.50168 10.119 1.18401C 9.59259 0.837473 9.09542 0.664203 8.569 0.664203Z"/>
<path id="path6_fill" d="M 6.31707 19.955L 9.00767 20.6192L 9.00767 21.0523L 3.57003e-06 21.0523L 3.57003e-06 20.6192L 2.69061 19.955L 2.69061 1.7327L 3.57003e-06 1.0685L 3.57003e-06 0.635324L 6.31707 0.635324L 6.31707 5.97783C 6.69726 4.88045 7.16519 3.89858 7.72086 3.00335C 8.18879 2.22364 8.7737 1.53055 9.4756 0.924108C 10.1482 0.288784 10.9964 -4.40649e-07 11.9615 -4.40649e-07L 12.8973 0.0577566L 13.7162 0.202149L 14.4181 0.433175L 13.0728 3.72531L 12.4879 3.40765L 11.8445 3.17662L 11.0549 3.06111C 10.2652 3.06111 9.59259 3.26326 8.97843 3.69643C 8.36427 4.10073 7.89633 4.56279 7.48689 5.0826C 7.01896 5.68904 6.60952 6.35325 6.31707 7.07521L 6.31707 19.955Z"/>
<path id="path7_fill" d="M 4.09439 10.8583C 4.09439 12.7643 4.24063 14.3526 4.50384 15.6232C 4.76705 16.8939 5.17648 17.9335 5.64441 18.7132C 6.11234 19.4929 6.63877 20.0416 7.22369 20.3881C 7.8086 20.7058 8.42276 20.8791 9.03692 20.8791C 9.82656 20.8791 10.5577 20.7347 11.2303 20.4459C 11.9322 20.1571 12.5464 19.7528 13.0728 19.233C 13.6285 18.7421 14.0672 18.1356 14.4181 17.4137C 14.7691 16.6917 15.003 15.9409 15.12 15.1034L 15.7927 15.1034C 15.6757 16.0564 15.4125 16.9227 15.003 17.7602C 14.5936 18.5688 14.0964 19.2908 13.453 19.8683C 12.8096 20.4748 12.1077 20.9368 11.2596 21.2545C 10.4407 21.601 9.53409 21.7743 8.56898 21.7743C 7.4284 21.7743 6.34632 21.5433 5.32272 21.0524C 4.29912 20.5614 3.3925 19.8395 2.60287 18.9153C 1.81324 17.9912 1.16983 16.8361 0.7019 15.5077C 0.233969 14.1504 -3.57003e-06 12.6199 -3.57003e-06 10.916C -3.57003e-06 9.12557 0.233958 7.56614 0.672644 6.20886C 1.11133 4.85157 1.7255 3.72531 2.45664 2.8012C 3.18778 1.90597 4.03591 1.21289 5.03026 0.72196C 5.99537 0.259906 7.01897 4.10387e-15 8.10106 4.10387e-15C 9.18315 4.10387e-15 10.2067 0.231027 11.1719 0.72196C 12.137 1.18401 13.0143 1.8771 13.7455 2.8012C 14.4766 3.69643 15.0615 4.85157 15.5295 6.20886C 15.9974 7.56614 16.2021 9.15445 16.2021 10.916L 4.09439 10.916L 4.09439 10.8583ZM 8.15955 0.635325C 7.72087 0.635325 7.25292 0.779717 6.81424 1.0685C 6.37555 1.35728 5.93687 1.84822 5.55668 2.57018C 5.17648 3.29214 4.85478 4.24512 4.59157 5.42914C 4.32836 6.64203 4.18214 8.14371 4.12365 9.99192L 12.1955 9.99192C 12.137 8.14371 11.9907 6.64203 11.7275 5.42914C 11.4643 4.21625 11.1426 3.26326 10.7624 2.57018C 10.3822 1.84822 9.94353 1.35728 9.50485 1.0685C 9.03692 0.779717 8.59824 0.635325 8.15955 0.635325Z"/>
<path id="path8_fill" d="M 10.8209 31.593C 12.6049 31.593 14.0964 31.0443 15.2078 29.918C 16.3191 28.8206 16.904 27.3767 16.904 25.5863C 16.904 23.9113 16.4653 22.5829 15.588 21.6588C 14.7106 20.7347 13.6577 20.2726 12.4002 20.2726C 11.6398 20.2726 11.0256 20.3593 10.5577 20.5325C 10.0898 20.7058 9.68032 20.908 9.38787 21.1679L 8.56899 22.0631L 8.1303 21.8321C 8.27653 20.9946 8.5105 20.2726 8.86145 19.6084C 9.1539 19.0597 9.59259 18.5399 10.1483 18.0779C 10.7039 17.6158 11.4643 17.3848 12.4294 17.3848C 13.0728 17.3848 13.6577 17.4426 14.1842 17.5869C 14.7106 17.7313 15.2662 17.8757 15.8219 18.049C 16.3776 18.2223 16.9333 18.3955 17.5182 18.5111C 18.0738 18.6554 18.7172 18.7132 19.4191 18.7132C 19.8578 18.7132 20.2673 18.6266 20.589 18.4533L 21.4371 17.818L 22.1097 16.9227L 22.5484 16.9227C 22.4314 17.9335 22.139 18.7132 21.6418 19.2619C 21.1739 19.8106 20.6475 20.2149 20.121 20.4459C 19.4776 20.7347 18.805 20.908 18.0446 20.9368C 18.2786 21.1679 18.5125 21.4566 18.7172 21.8321C 18.8635 22.1497 19.0097 22.554 19.1559 23.0161C 19.3022 23.4781 19.3899 24.0557 19.3899 24.7199C 19.3899 25.7306 19.1559 26.6836 18.7172 27.6366C 18.2493 28.5607 17.6351 29.3982 16.8163 30.1202C 15.9974 30.8421 15.0615 31.4197 13.9502 31.8529C 12.8681 32.286 11.669 32.4882 10.3822 32.4882C 8.80295 32.4882 7.36992 32.2572 6.08311 31.7662C 4.7963 31.3042 3.7142 30.64 2.80758 29.8314C 1.90097 29.0228 1.22832 28.0409 0.731139 26.9435C 0.263208 25.8462 -3.57003e-06 24.6333 -3.57003e-06 23.3626C -3.57003e-06 22.3519 0.116983 21.4566 0.350948 20.6481C 0.584914 19.8395 0.90662 19.1464 1.28681 18.5399C 1.66701 17.9335 2.10569 17.4137 2.60287 16.9516C 3.10005 16.5184 3.59722 16.143 4.12364 15.8542C 5.32271 15.1323 6.72651 14.6702 8.30578 14.4681C 6.96048 14.2659 5.7614 13.8616 4.70855 13.3129C 4.26987 13.0819 3.80194 12.7931 3.3925 12.4177C 2.95381 12.0712 2.57362 11.638 2.25192 11.1759C 1.93022 10.7139 1.63776 10.1363 1.43304 9.50099C 1.22832 8.86567 1.11134 8.14371 1.11134 7.33511C 1.11134 6.26661 1.31606 5.28475 1.69625 4.38952C 2.07645 3.49429 2.63211 2.74345 3.36325 2.07924C 4.09439 1.41504 4.97177 0.924109 6.05386 0.54869C 7.1067 0.17327 8.33502 -8.60642e-10 9.68032 -8.60642e-10C 10.9671 -8.60642e-10 12.1077 0.17327 13.1313 0.519811C 14.1257 0.866352 14.9738 1.29953 15.6757 1.8771C 16.3483 2.42579 16.904 3.08999 17.255 3.84083C 17.6059 4.59166 17.7814 5.40026 17.7814 6.20885L 17.7229 7.10408L 17.5767 7.73941L 17.3427 8.23034L 13.5115 7.33511L 13.7455 6.67091L 13.8917 6.03558L 13.9502 5.3425C 13.9502 3.78307 13.57 2.59906 12.8389 1.81934C 12.1077 1.03962 11.0256 0.664203 9.68032 0.664203C 9.03692 0.664203 8.45201 0.808595 7.86709 1.09738C 7.28218 1.38616 6.785 1.79046 6.34632 2.33915C 5.90763 2.88784 5.55668 3.58092 5.32272 4.41839C 5.0595 5.25587 4.94253 6.23773 4.94253 7.33511C 4.94253 9.67426 5.4397 11.3781 6.40481 12.4177C 7.36992 13.4573 8.77371 14.006 10.5577 14.006L 11.4643 14.006L 11.4643 14.9013L 10.5577 14.9013C 8.62748 14.9013 7.10671 15.5655 5.96613 16.865C 4.82554 18.1934 4.26987 20.3304 4.26987 23.3337C 4.26987 26.2505 4.85478 28.3297 5.99536 29.6292C 7.16519 30.9576 8.7737 31.593 10.8209 31.593Z"/>
<path id="path9_fill" d="M 5.03026 -2.75406e-08L 6.28782 -2.75406e-08L 6.28782 0.115514L 5.73216 0.231027L 5.73216 6.00671L 6.28782 6.1511L 6.28782 6.23773L 4.44535 6.23773L 4.44535 6.1511L 4.97177 6.00671L 4.97177 0.779717L 3.04155 6.38213L 2.92457 6.38213L 0.760388 0.779717L 0.760388 5.92007L 1.3453 6.1511L 1.3453 6.23773L -1.78502e-06 6.23773L -1.78502e-06 6.1511L 0.584912 5.92007L 0.584912 0.288784L -1.78502e-06 0.115514L -1.78502e-06 -2.75406e-08L 1.28681 -2.75406e-08L 3.24627 5.11148L 5.03026 -2.75406e-08Z"/>
<path id="path10_fill" d="M 1.31606 5.97783L 1.84248 6.12222L 1.84248 6.20886L 0 6.20886L 0 6.12222L 0.555666 5.97783L 0.555666 0.202149L 0 0.0866352L 0 1.37703e-08L 1.84248 1.37703e-08L 1.84248 0.0866352L 1.31606 0.202149L 1.31606 5.97783Z"/>
<path id="path11_fill" d="M 2.16418 0.0866352L 1.66701 0.231027L 1.22832 0.72196C 1.11134 0.952987 0.994354 1.27065 0.906616 1.67495C 0.818879 2.07924 0.789635 2.57018 0.789635 3.17662C 0.789635 3.78307 0.818879 4.274 0.906616 4.6783C 0.994354 5.0826 1.08209 5.37138 1.22832 5.63129L 1.69625 6.12222L 2.25192 6.26661L 2.71985 6.1511L 3.15854 5.80456L 3.50948 5.28475L 3.68496 4.64942L 3.83119 4.64942L 3.65571 5.37138L 3.30477 5.94895L 2.80759 6.32437L 2.19343 6.46876L 1.37455 6.26661L 0.672654 5.66017C 0.467935 5.40026 0.292457 5.05372 0.175474 4.64942C 0.0584914 4.24512 -1.78502e-06 3.75419 -1.78502e-06 3.23438C -1.78502e-06 2.68569 0.0584914 2.22364 0.175474 1.81934C 0.292457 1.41504 0.467935 1.0685 0.672654 0.808595L 1.3453 0.202149L 2.10569 -2.56492e-16L 2.48588 0.0577568L 2.77834 0.231027L 3.04155 0.462054L 3.21702 0.202149L 3.48023 0.0577568L 3.59722 0.0577568L 3.56798 0.317662L 3.53873 0.577568L 3.53873 0.837474L 3.53873 1.12626L 3.56798 1.38616L 3.59722 1.67495L 3.48023 1.67495C 3.33401 1.18401 3.15853 0.808595 2.92457 0.54869L 2.16418 0.0866352Z"/>
<path id="path12_fill" d="M 3.10004 6.03558L 3.24627 5.3425L 3.62646 4.79381L 3.7142 4.79381L 3.68496 5.02484L 3.68496 5.25587L 3.68496 5.4869L 3.68496 5.80456L 3.68496 6.03558L 3.7142 6.20886L -1.78502e-06 6.20886L -1.78502e-06 6.12222L 0.526426 5.97783L 0.526426 0.202149L -1.78502e-06 0.0866352L -1.78502e-06 1.37703e-08L 3.62646 1.37703e-08L 3.59722 0.17327L 3.59722 0.404298L 3.59722 0.693081L 3.59722 0.952987L 3.59722 1.15514L 3.62646 1.41504L 3.53873 1.41504L 3.15854 0.866352L 3.01231 0.17327L 1.28681 0.17327L 1.28681 2.83008L 2.13494 2.83008L 2.54438 2.02149L 2.63211 2.02149L 2.63211 3.81195L 2.54438 3.81195L 2.13494 3.00335L 1.28681 3.00335L 1.28681 6.03558L 3.10004 6.03558Z"/>
<path id="path13_fill" d="M 1.63776 0.144392L 1.19907 0.317662L 1.0236 0.808595L 1.0236 0.924109L 1.05284 1.01074L 1.08209 1.09738L 0.35095 1.27065L 0.321703 1.21289L 0.292455 1.12626L 0.292455 0.981865L 0.380198 0.635325L 0.643407 0.317662L 1.05284 0.0866352L 1.60851 0C 2.0472 0 2.3689 0.115514 2.63211 0.375419C 2.86608 0.606446 3.01231 0.952987 3.01231 1.35728L 3.01231 4.0141L 3.53873 4.15849L 3.53873 4.24512L 2.28117 4.24512L 2.28117 3.72531L 2.07644 4.04298L 1.75474 4.274L 1.28681 4.38952C 0.848121 4.38952 0.526422 4.30288 0.321703 4.07185C 0.0877371 3.8697 -1.78502e-06 3.6098 -1.78502e-06 3.26326L 0.146227 2.77233L 0.555665 2.33915L 1.28681 2.02149C 1.57926 1.93485 1.93021 1.90597 2.33965 1.90597L 2.33965 1.38616C 2.33965 0.952987 2.28117 0.635325 2.13494 0.462054L 1.63776 0.144392ZM 2.31041 2.07924C 1.78398 2.07924 1.40379 2.19476 1.14058 2.42579C 0.906613 2.65681 0.760388 2.97447 0.760388 3.37877L 0.965111 4.0141L 1.4038 4.24512L 1.78399 4.12961L 2.07644 3.8697L 2.31041 3.46541L 2.31041 2.07924Z"/>
<path id="path14_fill" d="M 1.25757 3.98522L 1.81323 4.12961L 1.81323 4.21625L -3.57003e-06 4.21625L -3.57003e-06 4.12961L 0.555672 3.98522L 0.555672 0.346541L -3.57003e-06 0.202149L -3.57003e-06 0.115514L 1.25757 0.115514L 1.25757 1.18401L 1.55002 0.606446L 1.90097 0.17327L 2.39815 1.10162e-07L 2.57362 1.10162e-07L 2.7491 0.0288783L 2.89533 0.0866351L 2.60287 0.750838L 2.48588 0.693082L 2.3689 0.635325L 2.22267 0.606446L 1.78399 0.750838L 1.49153 1.01074L 1.25757 1.41504L 1.25757 3.98522Z"/>
<path id="path15_fill" d="M 1.72549 1.10162e-07L 2.3689 0.144392L 2.92457 0.577568L 3.30476 1.27065C 3.3925 1.53055 3.45099 1.84822 3.45099 2.19476C 3.45099 2.5413 3.3925 2.85896 3.30476 3.11887L 2.92457 3.81195L 2.3689 4.24512L 1.72549 4.38952L 1.08209 4.24512L 0.526422 3.81195L 0.146232 3.11887C 0.058495 2.85896 3.57003e-06 2.5413 3.57003e-06 2.19476C 3.57003e-06 1.84822 0.058495 1.53055 0.146232 1.27065L 0.526422 0.577568L 1.08209 0.144392L 1.72549 1.10162e-07ZM 1.72549 0.115514L 1.40379 0.231027L 1.11134 0.577568L 0.906613 1.21289C 0.848121 1.4728 0.818879 1.79046 0.818879 2.19476C 0.818879 2.59906 0.848121 2.91672 0.906613 3.17662L 1.11134 3.81195L 1.40379 4.15849L 1.72549 4.274L 2.0472 4.15849L 2.33966 3.81195L 2.54438 3.17662C 2.60287 2.91672 2.63212 2.59906 2.63212 2.19476C 2.63212 1.79046 2.60287 1.4728 2.54438 1.21289L 2.33966 0.577568L 2.0472 0.231027L 1.72549 0.115514Z"/>
<path id="path16_fill" d="M 3.53873 0.231027L 3.53873 3.8697L 4.06514 4.0141L 4.06514 4.10073L 2.80758 4.10073L 2.80758 3.58092L 2.57362 3.89858L 2.25193 4.12961L 1.78398 4.24512L 1.2868 4.15849L 0.877374 3.89858L 0.614156 3.49429L 0.526422 2.9456L 0.526422 0.288784L 3.57003e-06 0.144392L 3.57003e-06 0.0577567L 1.75475 0.0577567L 1.75475 0.144392L 1.25756 0.288784L 1.25756 2.9456C 1.25756 3.34989 1.31606 3.66756 1.46229 3.84083L 1.93021 4.10073L 2.3104 3.98522L 2.60286 3.69643L 2.83684 3.29214L 2.83684 0.231027L 2.33966 0.0866352L 2.33966 0L 4.0944 0L 4.0944 0.0866352L 3.53873 0.231027Z"/>
<path id="path17_fill" d="M 0.526422 4.0141L 0.526422 0.375419L 3.57003e-06 0.231027L 3.57003e-06 0.144392L 1.25756 0.144392L 1.25756 0.664203L 1.49153 0.346541L 1.81324 0.115513L 2.28116 0L 2.77834 0.0866352L 3.18777 0.346541L 3.45099 0.750838L 3.53873 1.29953L 3.53873 3.95634L 4.06514 4.10073L 4.06514 4.18737L 2.3104 4.18737L 2.3104 4.10073L 2.80758 3.95634L 2.80758 1.29953C 2.80758 0.89523 2.74909 0.577568 2.60286 0.404297L 2.13494 0.144392L 1.75475 0.259905L 1.49153 0.548689L 1.25756 0.952987L 1.25756 3.98522L 1.75475 4.12961L 1.75475 4.21625L 3.57003e-06 4.21625L 3.57003e-06 4.12961L 0.526422 4.0141Z"/>
<path id="path18_fill" d="M 3.33402 5.97783L 3.86043 6.12222L 3.86043 6.20886L 2.60287 6.20886L 2.60287 5.68904L 2.33966 6.00671L 2.01796 6.23773L 1.55002 6.35325L 0.994361 6.20886L 0.49718 5.77568L 0.146228 5.0826C 0.0584914 4.82269 3.32485e-14 4.50503 3.32485e-14 4.15849C 3.32485e-14 3.81195 0.0292457 3.49429 0.146228 3.23438L 0.526419 2.5413L 1.05284 2.10812L 1.66701 1.96373L 2.10569 2.02149L 2.39815 2.16588L 2.60287 2.39691L 2.60287 0.202149L 2.07644 0.0577568L 2.07644 1.37703e-08L 3.33402 1.37703e-08L 3.33402 5.97783ZM 1.78398 2.16588L 1.43305 2.25252L 1.11133 2.59906L 0.877371 3.2055C 0.818879 3.46541 0.789637 3.78307 0.789637 4.15849C 0.789637 4.53391 0.818879 4.85157 0.877371 5.11148L 1.08209 5.71792L 1.37455 6.06446L 1.69625 6.1511L 2.07644 6.03558L 2.36889 5.77568L 2.60287 5.37138L 2.60287 2.71457L 2.39815 2.45466L 2.16419 2.28139L 1.78398 2.16588Z"/>
<path id="path19_fill" d="M 2.48588 1.50168L 2.48588 1.67495L 1.46228 1.67495L 1.46228 4.53391C 1.46228 4.90933 1.52077 5.16923 1.667 5.31363L 2.10569 5.54465L 2.63211 5.31363L 2.86609 4.64942L 3.01231 4.64942C 2.98307 4.99596 2.89532 5.25587 2.6906 5.42914L 2.01795 5.71792C 1.63776 5.71792 1.31606 5.60241 1.11134 5.37138C 0.877378 5.14036 0.760392 4.85157 0.760392 4.50503L 0.760392 1.67495L -7.14006e-06 1.67495L -7.14006e-06 1.50168L 0.760392 1.50168L 0.760392 0.490933L 1.49153 5.50812e-08L 1.49153 1.50168L 2.48588 1.50168Z"/>
<path id="path20_fill" d="M 0.526419 5.97783L 0.526419 0.202149L 0 0.0577568L 0 1.37703e-08L 1.25756 1.37703e-08L 1.25756 2.65681L 1.49152 2.33915L 1.81324 2.10812L 2.28116 1.99261L 2.77834 2.07924L 3.18779 2.33915L 3.45099 2.74345L 3.53872 3.29214L 3.53872 5.94895L 4.06516 6.09334L 4.06516 6.17998L 2.31042 6.17998L 2.31042 6.09334L 2.80758 5.94895L 2.80758 3.29214C 2.80758 2.88784 2.7491 2.57018 2.60287 2.39691L 2.13493 2.137L 1.75474 2.25251L 1.49152 2.5413L 1.25756 2.9456L 1.25756 5.97783L 1.75474 6.12222L 1.75474 6.20886L 0 6.20886L 0 6.12222L 0.526419 5.97783Z"/>
<path id="path21_fill" d="M 0.789637 2.19476C 0.789637 2.57018 0.818879 2.88784 0.877371 3.14774L 1.11133 3.75419L 1.43305 4.07185L 1.78398 4.15849L 2.22267 4.07185L 2.60287 3.84083L 2.86607 3.46541L 3.0123 3.00335L 3.15853 3.00335L 3.0123 3.52316L 2.69061 3.95634L 2.25192 4.24512L 1.7255 4.36064L 1.08209 4.21625L 0.526419 3.78307L 0.146228 3.08999C 0.0584914 2.83008 0 2.51242 0 2.16588C 0 1.81934 0.0584914 1.50168 0.146228 1.21289L 0.49718 0.548689L 1.0236 0.144392L 1.63775 -5.12983e-16L 2.25192 0.144392L 2.77834 0.548689L 3.12929 1.21289C 3.21703 1.4728 3.27552 1.79046 3.27552 2.16588L 0.789637 2.16588L 0.789637 2.19476ZM 1.57927 0.144392L 1.31606 0.231027L 1.05284 0.519811L 0.848132 1.09738C 0.789641 1.32841 0.760381 1.64607 0.760381 2.02149L 2.36889 2.02149C 2.36889 1.64607 2.31041 1.35728 2.28116 1.09738L 2.07644 0.519811L 1.81324 0.231027L 1.57927 0.144392Z"/>
<path id="path22_fill" d="M 2.01796 4.36064L 1.90097 4.36064L 0.526419 0.346541L 0 0.202149L 0 0.115514L 1.78398 0.115514L 1.78398 0.202149L 1.31606 0.346541L 2.25192 3.11887L 3.24626 1.10162e-07L 3.36325 1.10162e-07L 4.53308 3.11887L 5.35196 0.433176L 4.76704 0.202149L 4.76704 0.115514L 6.11236 0.115514L 6.11236 0.202149L 5.52744 0.433176L 4.32836 4.36064L 4.18213 4.36064L 3.0123 1.21289L 2.01796 4.36064Z"/>
<path id="path23_fill" d="M 1.7255 1.10162e-07L 2.36891 0.144392L 2.92457 0.577568L 3.30476 1.27065C 3.39249 1.53055 3.45098 1.84822 3.45098 2.19476C 3.45098 2.5413 3.39249 2.85896 3.30476 3.11887L 2.92457 3.81195L 2.36891 4.24512L 1.7255 4.38952L 1.08209 4.24512L 0.526415 3.81195L 0.146225 3.11887C 0.0584878 2.85896 -3.57003e-06 2.5413 -3.57003e-06 2.19476C -3.57003e-06 1.84822 0.0584878 1.53055 0.146225 1.27065L 0.526415 0.577568L 1.08209 0.144392L 1.7255 1.10162e-07ZM 1.7255 0.115514L 1.40379 0.231027L 1.11133 0.577568L 0.906624 1.21289C 0.848132 1.4728 0.818872 1.79046 0.818872 2.19476C 0.818872 2.59906 0.848132 2.91672 0.906624 3.17662L 1.11133 3.81195L 1.40379 4.15849L 1.7255 4.274L 2.04719 4.15849L 2.33965 3.81195L 2.54438 3.14774C 2.60287 2.88784 2.63211 2.57018 2.63211 2.16588C 2.63211 1.76158 2.60287 1.44392 2.54438 1.18401L 2.33965 0.548689L 2.04719 0.202149L 1.7255 0.115514Z"/>
<path id="path24_fill" d="M 1.25757 3.98522L 1.78399 4.12961L 1.78399 4.21625L 7.14006e-06 4.21625L 7.14006e-06 4.12961L 0.526426 3.98522L 0.526426 0.346541L 7.14006e-06 0.202149L 7.14006e-06 0.115514L 1.25757 0.115514L 1.25757 1.18401L 1.52077 0.606446L 1.87172 0.17327L 2.3689 1.10162e-07L 2.57362 1.10162e-07L 2.71985 0.0288783L 2.86608 0.0866351L 2.60286 0.750838L 2.48589 0.693082L 2.3689 0.635325L 2.19343 0.606446L 1.78399 0.750838L 1.49153 1.01074L 1.25757 1.41504L 1.25757 3.98522Z"/>
<path id="path25_fill" d="M 0.555672 5.97783L 0.555672 0.202149L -3.57003e-06 0.0866352L -3.57003e-06 1.37703e-08L 1.28681 1.37703e-08L 1.28681 5.97783L 1.81323 6.12222L 1.81323 6.20886L -3.57003e-06 6.20886L -3.57003e-06 6.12222L 0.555672 5.97783Z"/>
<path id="path26_fill" d="M 3.33401 5.97783L 3.86043 6.12222L 3.86043 6.20885L 2.60287 6.20885L 2.60287 5.68904L 2.33965 6.03558L 2.01796 6.26661L 1.55001 6.38212L 0.994357 6.23773L 0.497177 5.80456L 0.146225 5.11148C 0.0584878 4.85157 -3.57003e-06 4.53391 -3.57003e-06 4.18737C -3.57003e-06 3.84083 0.0292421 3.52316 0.146225 3.26326L 0.526415 2.57018L 1.05285 2.137L 1.667 1.99261L 2.10569 2.05037L 2.39815 2.19476L 2.60287 2.42579L 2.60287 0.202149L 2.07645 0.0577568L 2.07645 1.37703e-08L 3.33401 1.37703e-08L 3.33401 5.97783ZM 1.81323 2.16588L 1.46228 2.25251L 1.14059 2.59906L 0.906624 3.2055C 0.848132 3.46541 0.818872 3.78307 0.818872 4.15849C 0.818872 4.53391 0.848132 4.85157 0.906624 5.11148L 1.11133 5.71792L 1.40379 6.06446L 1.7255 6.1511L 2.10569 6.03558L 2.39815 5.77568L 2.63211 5.37138L 2.63211 2.71457L 2.42739 2.45466L 2.19342 2.28139L 1.81323 2.16588Z"/>
</defs>
</svg>
