<svg width="695" height="311" viewBox="0 0 695 311" version="1.1" xmlns="http://www.w3.org/2000/svg" xmlns:xlink="http://www.w3.org/1999/xlink">
<title>back</title>
<desc>Created using Figma</desc>
<g id="Canvas" transform="translate(-745 -5370)">
<g id="back">
<g id="Rectangle 2">
<use xlink:href="#path0_fill" transform="translate(745 5371)" fill="#EDEDED"/>
</g>
<g id="Rectangle 2.1">
<use xlink:href="#path1_fill" transform="translate(773.958 5371)" fill="#FFFFFF"/>
</g>
<g id="Rectangle 2.8">
<use xlink:href="#path2_fill" transform="translate(957.361 5371)" fill="#FFFFFF"/>
</g>
<g id="Rectangle 2.9">
<use xlink:href="#path3_fill" transform="translate(967.014 5371)" fill="#FFFFFF"/>
</g>
<g id="Rectangle 2.13">
<use xlink:href="#path4_fill" transform="translate(1024.93 5371)" fill="#FFFFFF"/>
</g>
<g id="Rectangle 2.14">
<use xlink:href="#path5_fill" transform="translate(1066.44 5371)" fill="#FFFFFF"/>
</g>
<g id="Rectangle 2.15">
<use xlink:href="#path6_fill" transform="translate(1085.74 5371)" fill="#FFFFFF"/>
</g>
<g id="Rectangle 2.18">
<use xlink:href="#path7_fill" transform="translate(1189.03 5371)" fill="#FFFFFF"/>
</g>
<g id="Rectangle 2.19">
<use xlink:href="#path8_fill" transform="translate(1304.86 5371)" fill="#FFFFFF"/>
</g>
<g id="Rectangle 2.20">
<use xlink:href="#path9_fill" transform="translate(1333.82 5371)" fill="#FFFFFF"/>
</g>
<g id="Rectangle 2.21">
<use xlink:href="#path10_fill" transform="translate(1362.78 5371)" fill="#FFFFFF"/>
</g>
<g id="Rectangle 2.22">
<use xlink:href="#path5_fill" transform="translate(1372.43 5371)" fill="#FFFFFF"/>
</g>
<g id="Rectangle 2.23">
<use xlink:href="#path2_fill" transform="translate(1389.88 5371)" fill="#FFFFFF"/>
</g>
<g id="Rectangle 2.24">
<use xlink:href="#path11_fill" transform="translate(1398.53 5371)" fill="#FFFFFF"/>
</g>
<g id="Rectangle 2.16">
<use xlink:href="#path12_fill" transform="translate(1143.66 5371)" fill="#FFFFFF"/>
</g>
<g id="Rectangle 2.17">
<use xlink:href="#path13_fill" transform="translate(1153.31 5371)" fill="#FFFFFF"/>
</g>
<g id="Rectangle 2.10">
<use xlink:href="#path10_fill" transform="translate(1005.62 5371)" fill="#FFFFFF"/>
</g>
<g id="Rectangle 2.11">
<use xlink:href="#path10_fill" transform="translate(1010.45 5371)" fill="#FFFFFF"/>
</g>
<g id="Rectangle 2.12">
<use xlink:href="#path10_fill" transform="translate(1017.21 5371)" fill="#FFFFFF"/>
</g>
<g id="Rectangle 2.2">
<use xlink:href="#path8_fill" transform="translate(857.938 5370)" fill="#FFFFFF"/>
</g>
<g id="Rectangle 2.3">
<use xlink:href="#path8_fill" transform="translate(857.938 5371)" fill="#FFFFFF"/>
</g>
<g id="Rectangle 2.7">
<use xlink:href="#path14_fill" transform="translate(915.854 5371)" fill="#FFFFFF"/>
</g>
<g id="Rectangle 2.4">
<use xlink:href="#path12_fill" transform="translate(872.417 5371)" fill="#FFFFFF"/>
</g>
<g id="Rectangle 2.5">
<use xlink:href="#path12_fill" transform="translate(877.243 5371)" fill="#FFFFFF"/>
</g>
<g id="Rectangle 2.6">
<use xlink:href="#path12_fill" transform="translate(886.896 5371)" fill="#FFFFFF"/>
</g>
</g>
</g>
<defs>
<path id="path0_fill" d="M 0 0L 695 0L 695 310L 0 310L 0 0Z"/>
<path id="path1_fill" d="M 0 0L 68.5347 0L 68.5347 310L 0 310L 0 0Z"/>
<path id="path2_fill" d="M 0 0L 5.79167 0L 5.79167 310L 0 310L 0 0Z"/>
<path id="path3_fill" d="M 0 0L 14.4792 0L 14.4792 310L 0 310L 0 0Z"/>
<path id="path4_fill" d="M 0 0L 37.6458 0L 37.6458 310L 0 310L 0 0Z"/>
<path id="path5_fill" d="M 0 0L 10.6181 0L 10.6181 310L 0 310L 0 0Z"/>
<path id="path6_fill" d="M 0 0L 54.0556 0L 54.0556 310L 0 310L 0 0Z"/>
<path id="path7_fill" d="M 0 0L 114.868 0L 114.868 310L 0 310L 0 0Z"/>
<path id="path8_fill" d="M 0 0L 8.6875 0L 8.6875 310L 0 310L 0 0Z"/>
<path id="path9_fill" d="M 0 0L 21.2361 0L 21.2361 310L 0 310L 0 0Z"/>
<path id="path10_fill" d="M 0 0L 1.93056 0L 1.93056 310L 0 310L 0 0Z"/>
<path id="path11_fill" d="M 0 0L 20.2708 0L 20.2708 310L 0 310L 0 0Z"/>
<path id="path12_fill" d="M 0 0L 2.89583 0L 2.89583 310L 0 310L 0 0Z"/>
<path id="path13_fill" d="M 0 0L 22.2014 0L 22.2014 310L 0 310L 0 0Z"/>
<path id="path14_fill" d="M 0 0L 24.1319 0L 24.1319 310L 0 310L 0 0Z"/>
</defs>
</svg>
