<!-- Generator: Adobe Illustrator 21.1.0, SVG Export Plug-In  -->
<svg version="1.1"
	 xmlns="http://www.w3.org/2000/svg" xmlns:xlink="http://www.w3.org/1999/xlink" xmlns:a="http://ns.adobe.com/AdobeSVGViewerExtensions/3.0/"
	 x="0px" y="0px" width="92.2px" height="93.3px" viewBox="0 0 92.2 93.3" style="enable-background:new 0 0 92.2 93.3;"
	 xml:space="preserve">
<style type="text/css">
	.st0{fill:#8DC63F;}
	.st1{fill:url(#SVGID_1_);}
	.st2{fill:url(#SVGID_2_);}
	.st3{fill:url(#SVGID_3_);}
	.st4{fill:#E6E7E8;}
	.st5{fill:#476320;}
	.st6{fill:#2F3646;}
	.st7{fill:#415168;}
	.st8{fill:url(#SVGID_4_);}
	.st9{fill:url(#SVGID_5_);}
	.st10{fill:url(#SVGID_6_);}
	.st11{fill:url(#SVGID_7_);}
	.st12{fill:url(#SVGID_8_);}
	.st13{fill:url(#SVGID_9_);}
	.st14{fill:url(#SVGID_10_);}
	.st15{fill:url(#SVGID_11_);}
	.st16{fill:url(#SVGID_12_);}
	.st17{fill:url(#SVGID_13_);}
	.st18{fill:url(#SVGID_14_);}
	.st19{fill:#A4FF00;}
	.st20{fill:#6A952F;}
	.st21{fill:url(#SVGID_15_);}
	.st22{fill:url(#SVGID_16_);}
	.st23{fill:url(#SVGID_17_);}
	.st24{fill:url(#SVGID_18_);}
	.st25{fill:#D1D3D4;}
	.st26{fill:url(#SVGID_19_);}
	.st27{opacity:0.6;fill:url(#SVGID_20_);}
	.st28{fill:url(#SVGID_21_);}
	.st29{fill:url(#SVGID_22_);}
	.st30{fill:url(#SVGID_23_);}
	.st31{fill:#759933;}
	.st32{fill:url(#SVGID_24_);}
	.st33{fill:url(#SVGID_25_);}
	.st34{fill:url(#SVGID_26_);}
	.st35{fill:url(#SVGID_27_);}
	.st36{fill:url(#SVGID_28_);}
	.st37{fill:url(#SVGID_29_);}
	.st38{fill:url(#SVGID_30_);}
	.st39{fill:url(#SVGID_31_);}
	.st40{fill:url(#SVGID_32_);}
	.st41{fill:url(#SVGID_33_);}
	.st42{fill:url(#SVGID_34_);}
	.st43{fill:url(#SVGID_35_);}
	.st44{fill:url(#SVGID_36_);}
	.st45{fill:url(#SVGID_37_);}
	.st46{fill:#528000;}
	.st47{fill:url(#SVGID_38_);}
	.st48{fill:url(#SVGID_39_);}
	.st49{fill:url(#SVGID_40_);}
	.st50{fill:url(#SVGID_41_);}
	.st51{fill:url(#SVGID_42_);}
	.st52{fill:url(#SVGID_43_);}
	.st53{fill:url(#SVGID_44_);}
	.st54{fill:url(#SVGID_45_);}
	.st55{fill:url(#SVGID_46_);}
	.st56{fill:url(#SVGID_47_);}
	.st57{fill:url(#SVGID_48_);}
	.st58{fill:url(#SVGID_49_);}
	.st59{fill:url(#SVGID_50_);}
	.st60{fill:url(#SVGID_51_);}
	.st61{fill:url(#SVGID_52_);}
	.st62{fill:url(#SVGID_53_);}
	.st63{fill:url(#SVGID_54_);}
	.st64{fill:url(#SVGID_55_);}
	.st65{fill:url(#SVGID_56_);}
	.st66{opacity:0.6;fill:url(#SVGID_57_);}
	.st67{fill:url(#SVGID_58_);}
	.st68{fill:url(#SVGID_59_);}
	.st69{fill:url(#SVGID_60_);}
	.st70{fill:url(#SVGID_61_);}
	.st71{fill:url(#SVGID_62_);}
	.st72{fill:url(#SVGID_63_);}
	.st73{fill:url(#SVGID_64_);}
	.st74{fill:url(#SVGID_65_);}
	.st75{fill:url(#SVGID_66_);}
	.st76{fill:url(#SVGID_67_);}
	.st77{fill:url(#SVGID_68_);}
	.st78{fill:url(#SVGID_69_);}
	.st79{fill:url(#SVGID_70_);}
	.st80{fill:url(#SVGID_71_);}
	.st81{fill:url(#SVGID_72_);}
	.st82{fill:url(#SVGID_73_);}
	.st83{fill:url(#SVGID_74_);}
</style>
<defs>
</defs>
<g>
	<path class="st0" d="M16.5,22.7c0,0,0.1-11.8,35.7,21.4c29.1,27.2,22.9,30.3,22.9,30.3s10.7,3.2,6.7-6.9s-22.2-30-37.5-41.9
		C27.2,12.4,11,8.9,16.5,22.7z"/>
	<linearGradient id="SVGID_1_" gradientUnits="userSpaceOnUse" x1="29.1912" y1="30.5779" x2="69.5166" y2="30.5779">
		<stop  offset="0" style="stop-color:#415168"/>
		<stop  offset="0.2688" style="stop-color:#2F3646"/>
		<stop  offset="0.5323" style="stop-color:#9FA4AE"/>
		<stop  offset="0.7742" style="stop-color:#E3EBF1"/>
		<stop  offset="1" style="stop-color:#A7B6C7"/>
	</linearGradient>
	<path class="st1" d="M29.2,16.9c0,0,22.5,12.8,37.9,30.7l2.4-4c0,0-13.4-17.5-35.3-30.1L29.2,16.9z"/>
	<linearGradient id="SVGID_2_" gradientUnits="userSpaceOnUse" x1="-36.1271" y1="-31.6874" x2="102.0983" y2="89.1588">
		<stop  offset="0" style="stop-color:#415168"/>
		<stop  offset="0.2688" style="stop-color:#2F3646"/>
		<stop  offset="0.5323" style="stop-color:#9FA4AE"/>
		<stop  offset="0.7742" style="stop-color:#E3EBF1"/>
		<stop  offset="1" style="stop-color:#A7B6C7"/>
	</linearGradient>
	<path class="st2" d="M75.7,74.5c0,0,14.8,4-0.1-16.8l-1.1,1.8C74.6,59.4,88.2,76.2,75.7,74.5z"/>
	<linearGradient id="SVGID_3_" gradientUnits="userSpaceOnUse" x1="-28.8254" y1="-36.3739" x2="107.5832" y2="82.8839">
		<stop  offset="0" style="stop-color:#415168"/>
		<stop  offset="0.2688" style="stop-color:#2F3646"/>
		<stop  offset="0.5323" style="stop-color:#9FA4AE"/>
		<stop  offset="0.7742" style="stop-color:#E3EBF1"/>
		<stop  offset="1" style="stop-color:#A7B6C7"/>
	</linearGradient>
	<path class="st3" d="M46.1,30.4c0,0,6.9,5.1,11.8,10.5l0.9-1.5c0,0-8.1-8-11.5-10.2L46.1,30.4z"/>
	<path class="st4" d="M58.5,39.3c-5-5.3-11.3-9.8-11.3-9.9l-0.1-0.1l0.4-0.5l0.1,0.1c0.1,0,6.4,4.5,11.4,10l0.1,0.1L58.5,39.3
		L58.5,39.3z"/>
	<path class="st5" d="M57.7,41.1C51.1,34.4,46,30.6,45.9,30.6l0.4-0.5c0.1,0,5.2,3.8,11.8,10.5L57.7,41.1z"/>
	<path class="st5" d="M74.8,59.3c0,0,0.7,0.8,1.6,2.1c0.9,1.3,2.1,3.1,3,5c0.2,0.5,0.5,1,0.7,1.4c0.2,0.5,0.4,1,0.5,1.4
		c0.1,0.2,0.1,0.5,0.2,0.7c0,0.2,0.1,0.5,0.1,0.7c0,0.2,0.1,0.4,0,0.7c0,0.1,0,0.2,0,0.3c0,0.1,0,0.2,0,0.3c0,0.4-0.1,0.7-0.3,1
		c-0.1,0.3-0.3,0.5-0.5,0.7c-0.1,0.2-0.3,0.3-0.4,0.4c-0.1,0.1-0.2,0.1-0.2,0.1s0.1,0,0.1-0.1c0.1-0.1,0.2-0.2,0.4-0.4
		c0.2-0.2,0.3-0.4,0.4-0.7c0.1-0.3,0.2-0.6,0.2-1c0-0.1,0-0.2,0-0.3c0-0.1,0-0.2,0-0.3c0-0.2,0-0.4-0.1-0.6c0-0.2-0.1-0.4-0.1-0.7
		c-0.1-0.2-0.1-0.5-0.2-0.7c-0.2-0.5-0.3-0.9-0.6-1.4c-0.2-0.5-0.4-0.9-0.7-1.4c-1-1.8-2.2-3.6-3.2-4.8c-0.5-0.6-0.9-1.1-1.2-1.5
		c-0.3-0.4-0.5-0.6-0.5-0.6L74.8,59.3z"/>
	<path class="st6" d="M54,45.9c-5.7-5.4-11.8-10.5-11.8-10.6l0.2-0.2c0.1,0.1,6.1,5.2,11.8,10.6L54,45.9z"/>
	<path class="st6" d="M71.2,63.9c0,0,1.9,2.3,3.2,4.9c0.3,0.6,0.6,1.3,0.9,1.9c0.1,0.3,0.2,0.6,0.3,0.9c0.1,0.3,0.1,0.6,0.2,0.9
		c0,0.3,0,0.5,0,0.7c0,0.2,0,0.4-0.1,0.6c0,0.2-0.1,0.3-0.1,0.3c0,0.1-0.1,0.1-0.1,0.1s0,0,0-0.1c0-0.1,0.1-0.2,0.1-0.3
		c0-0.1,0.1-0.3,0.1-0.6c0-0.2,0-0.5,0-0.7c0-0.3-0.1-0.5-0.2-0.8c-0.1-0.3-0.2-0.6-0.3-0.9c-0.2-0.6-0.6-1.3-0.9-1.9
		c-0.7-1.3-1.5-2.4-2.2-3.3c-0.6-0.9-1.1-1.4-1.1-1.4L71.2,63.9z"/>
	<path class="st7" d="M16.5,22.7c0,0,2.1-7.5,29.6,17.4c16.5,15,24.3,24.4,27,29.4c1.8,3.3,1.1,4.7,0.2,4.6
		c-2.2-0.2,2.5,3.5,2.4-1.3c-0.1-5.3-15-21.3-22.1-27.9S18.3,13,16.5,22.7z"/>
	<linearGradient id="SVGID_4_" gradientUnits="userSpaceOnUse" x1="60.6524" y1="102.3172" x2="92.2011" y2="42.6407">
		<stop  offset="0" style="stop-color:#415168"/>
		<stop  offset="0.2789" style="stop-color:#2F3646"/>
		<stop  offset="0.5553" style="stop-color:#9FA4AE"/>
		<stop  offset="0.7742" style="stop-color:#E3EBF1"/>
		<stop  offset="1" style="stop-color:#A7B6C7"/>
	</linearGradient>
	<path class="st8" d="M69.5,43.6c-0.5,1.2-1.4,2.6-2.4,4C78.2,59.5,85.3,69.9,81,74c-2.7,2.6-7.9,0.3-15.6-5.2c0,0-14.7,14-14.8,14
		C66.4,92.8,82.3,96.6,89,90.1C97.5,81.9,87.9,62.6,69.5,43.6z"/>
	<linearGradient id="SVGID_5_" gradientUnits="userSpaceOnUse" x1="-34.1274" y1="-32.2562" x2="104.4655" y2="88.9113">
		<stop  offset="0" style="stop-color:#415168"/>
		<stop  offset="0.2688" style="stop-color:#2F3646"/>
		<stop  offset="0.5323" style="stop-color:#9FA4AE"/>
		<stop  offset="0.7742" style="stop-color:#E3EBF1"/>
		<stop  offset="1" style="stop-color:#A7B6C7"/>
	</linearGradient>
	<path class="st9" d="M15.6,17.3c0,0,1-4.5,11.8,0.6l1.3-1.3C28.7,16.6,16.2,10.5,15.6,17.3z"/>
	<radialGradient id="SVGID_6_" cx="49.2198" cy="54.3507" r="38.8203" gradientUnits="userSpaceOnUse">
		<stop  offset="0" style="stop-color:#A4FF00"/>
		<stop  offset="1" style="stop-color:#7BBF00"/>
	</radialGradient>
	<ellipse class="st10" cx="51.6" cy="71.8" rx="2.6" ry="2.5"/>
	<path class="st5" d="M27,18.1c0,0,0.1,0-0.2-0.1c-0.3-0.2-0.7-0.4-1.3-0.6c-1.1-0.5-2.5-1.1-4-1.4c-0.4-0.1-0.8-0.2-1.1-0.2
		c-0.4-0.1-0.8-0.1-1.1-0.1c-0.2,0-0.4,0-0.5,0c-0.2,0-0.3,0-0.5,0c-0.2,0-0.3,0.1-0.5,0.1c-0.2,0-0.3,0.1-0.4,0.1
		c-0.1,0.1-0.3,0.1-0.4,0.2c-0.1,0.1-0.2,0.1-0.3,0.2c-0.1,0.1-0.2,0.2-0.2,0.2c-0.1,0.1-0.1,0.1-0.2,0.2c-0.1,0.1-0.1,0.1-0.1,0.2
		c0,0.1-0.1,0.1-0.1,0.1c0,0.1-0.1,0.1-0.1,0.1s0,0,0.1-0.1c0,0,0-0.1,0.1-0.1c0-0.1,0.1-0.1,0.1-0.2c0.1-0.1,0.1-0.1,0.2-0.2
		c0.1-0.1,0.2-0.1,0.2-0.2c0.1-0.1,0.2-0.1,0.3-0.2c0.1-0.1,0.2-0.1,0.4-0.2c0.1-0.1,0.3-0.1,0.4-0.2c0.2,0,0.3-0.1,0.5-0.1
		c0.2,0,0.3-0.1,0.5-0.1c0.2,0,0.4,0,0.6,0c0.4,0,0.8,0,1.2,0.1c0.4,0,0.8,0.1,1.2,0.2c1.6,0.3,3.1,0.8,4.2,1.3
		c0.6,0.2,1,0.4,1.3,0.6c0.3,0.1,0.4,0.2,0.4,0.2L27,18.1z"/>
	<path class="st6" d="M23.1,21.9c0,0-0.4-0.2-1.1-0.5c-0.7-0.3-1.5-0.6-2.5-0.7c-0.2,0-0.5,0-0.7,0c-0.2,0-0.5,0-0.7,0.1
		c-0.2,0-0.4,0.1-0.6,0.2c-0.1,0.1-0.2,0.1-0.2,0.2c-0.1,0.1-0.1,0.1-0.2,0.2c-0.1,0.1-0.1,0.1-0.2,0.2c0,0.1-0.1,0.1-0.1,0.2
		c-0.1,0.1-0.1,0.2-0.2,0.3c-0.1,0.2-0.1,0.3-0.1,0.3s0-0.1,0.1-0.3c0-0.1,0.1-0.2,0.1-0.3c0-0.1,0.1-0.1,0.1-0.2
		c0-0.1,0.1-0.1,0.2-0.2c0.1-0.1,0.1-0.1,0.2-0.2c0.1-0.1,0.2-0.1,0.2-0.2c0.2-0.1,0.4-0.2,0.6-0.3c0.2-0.1,0.5-0.1,0.7-0.1
		c0.2,0,0.5,0,0.7,0c1,0.1,1.9,0.4,2.6,0.6c0.7,0.2,1.1,0.5,1.1,0.5L23.1,21.9z"/>
	<linearGradient id="SVGID_7_" gradientUnits="userSpaceOnUse" x1="79.4131" y1="76.2768" x2="77.1974" y2="68.6942">
		<stop  offset="0" style="stop-color:#000000"/>
		<stop  offset="1" style="stop-color:#000000;stop-opacity:0"/>
	</linearGradient>
	<path class="st11" d="M74.1,73.9c0,0,4.9,2.7,7.4-0.4s-2.1-10-2.1-10l-6,6.4C73.4,69.9,74.8,72.5,74.1,73.9z"/>
	<linearGradient id="SVGID_8_" gradientUnits="userSpaceOnUse" x1="71.6038" y1="59.4781" x2="74.9441" y2="71.6249">
		<stop  offset="0" style="stop-color:#415168"/>
		<stop  offset="1" style="stop-color:#A7B6C7"/>
	</linearGradient>
	<path class="st12" d="M78.5,75.3c-4.9,0-11.9-5.4-12.2-5.7l-0.1-0.1l0.4-0.5l0.1,0.1c0.1,0.1,7.1,5.5,11.7,5.5c1.1,0,2-0.3,2.7-1
		c3.8-3.8-5.6-15.4-5.7-15.5L75.4,58l0.5-0.4l0.1,0.1c0.4,0.5,9.8,12.2,5.6,16.4C80.9,74.9,79.8,75.3,78.5,75.3z"/>
	<linearGradient id="SVGID_9_" gradientUnits="userSpaceOnUse" x1="73.3922" y1="59.0864" x2="78.0506" y2="63.7449">
		<stop  offset="0" style="stop-color:#000000"/>
		<stop  offset="1" style="stop-color:#000000;stop-opacity:0"/>
	</linearGradient>
	<path class="st13" d="M70.3,65.2c0,0,4.2-5.2,8.1-11.5c0,0,2.9,3.4,4.5,6.1L73,69.1c0,0-0.8-1.4-1.3-2
		C71.3,66.5,70.3,65.2,70.3,65.2z"/>
	<linearGradient id="SVGID_10_" gradientUnits="userSpaceOnUse" x1="47.4782" y1="31.1028" x2="57.6124" y2="41.2371">
		<stop  offset="0" style="stop-color:#000000"/>
		<stop  offset="1" style="stop-color:#000000;stop-opacity:0"/>
	</linearGradient>
	<path class="st14" d="M53.6,46.9c0,0,5.2-6.9,7.7-12.6c0,0-4.9-4.8-7.9-7.3c0,0-5.8,2.3-11.8,8.9C41.7,35.9,50.9,44.2,53.6,46.9z"
		/>
	<linearGradient id="SVGID_11_" gradientUnits="userSpaceOnUse" x1="58.6229" y1="41.4587" x2="55.1294" y2="38.5817">
		<stop  offset="0" style="stop-color:#000000"/>
		<stop  offset="1" style="stop-color:#000000;stop-opacity:0"/>
	</linearGradient>
	<path class="st15" d="M53.6,46.9c0,0,5.9-7.8,7.7-12.5l-3.1-2.8l-9.3,11C49,42.5,53.1,46.4,53.6,46.9z"/>
	<linearGradient id="SVGID_12_" gradientUnits="userSpaceOnUse" x1="14.2183" y1="19.1392" x2="20.677" y2="17.9282">
		<stop  offset="0" style="stop-color:#000000"/>
		<stop  offset="1" style="stop-color:#000000;stop-opacity:0"/>
	</linearGradient>
	<path class="st16" d="M20.6,21.9c0,0-0.9-6,1-7.5c0,0-8.3-2.4-5.1,8.3C16.5,22.7,17,20.9,20.6,21.9z"/>
	<g>
		<linearGradient id="SVGID_13_" gradientUnits="userSpaceOnUse" x1="71.341" y1="28.3284" x2="19.5653" y2="69.3238">
			<stop  offset="0" style="stop-color:#415168"/>
			<stop  offset="0.2688" style="stop-color:#2F3646"/>
			<stop  offset="0.5323" style="stop-color:#9FA4AE"/>
			<stop  offset="0.7742" style="stop-color:#E3EBF1"/>
			<stop  offset="1" style="stop-color:#A7B6C7"/>
		</linearGradient>
		<path class="st17" d="M33.6,70.8c-2.2,0-4.2-0.6-5.6-1.9c-5.7-5.1-2-18.3,8.5-30c10.5-11.8,23.1-17,28.8-12c5.7,5.1,2,18.3-8.5,30
			l0,0C49.1,65.6,40.1,70.8,33.6,70.8z M59.7,27.1c-5.7,0-14.4,5.1-21.6,13.2c-9.3,10.5-13.3,22.9-8.7,27
			c4.7,4.1,16.5-1.3,25.8-11.8l0,0c9.3-10.5,13.3-22.9,8.7-27C62.8,27.5,61.4,27.1,59.7,27.1z"/>
		<path class="st0" d="M23.8,30.4C10.9,45.7,6.5,62.8,13.9,68.5c3.3,2.6,8.5,2.4,14.3,0.1c-0.4-0.2-0.9-0.3-1.1-0.6
			c-3.3-5.7-1-16.4,8.8-28.2c8.5-10.2,20.3-15.4,25.9-14c0.4,0.1,1.6,0.3,1.9,0.7c1.2-6,0.2-10.8-3.1-13.4
			C53.2,7.3,36.7,15.1,23.8,30.4z"/>
		<linearGradient id="SVGID_14_" gradientUnits="userSpaceOnUse" x1="66.4366" y1="24.4858" x2="-10.3919" y2="115.1313">
			<stop  offset="0" style="stop-color:#415168"/>
			<stop  offset="0.2688" style="stop-color:#2F3646"/>
			<stop  offset="0.5323" style="stop-color:#9FA4AE"/>
			<stop  offset="0.7742" style="stop-color:#E3EBF1"/>
			<stop  offset="1" style="stop-color:#A7B6C7"/>
		</linearGradient>
		<path class="st18" d="M33.4,70.6c-2.2,0-4-0.6-5.4-1.8c-5.5-4.9-1.7-18.3,8.5-29.8c4.9-5.6,10.6-9.9,16-12.2
			c5.4-2.3,9.9-2.3,12.6,0.1c2.7,2.4,3.3,6.9,1.6,12.5c-1.6,5.6-5.2,11.7-10.2,17.3l-0.2-0.2l0.2,0.2C49,65.4,39.9,70.6,33.4,70.6z
			 M59.8,25.7c-2,0-4.4,0.5-7,1.6c-5.3,2.2-10.9,6.5-15.8,12c-10,11.3-13.9,24.3-8.6,29c1.3,1.2,3,1.7,5,1.7
			c6.2,0,15.1-5.1,22.7-13.7l0,0c4.9-5.5,8.4-11.6,10.1-17.1c1.6-5.4,1.1-9.7-1.5-11.9C63.5,26.3,61.8,25.7,59.8,25.7z"/>
		<path class="st19" d="M26.4,73.6c-3.1,0-5.7-0.9-7.7-2.6c-3.6-3.2-4.6-9-2.6-16.3c1.9-7.2,6.4-15,12.6-22
			c6.2-7,13.5-12.4,20.4-15.1c7-2.8,12.9-2.5,16.5,0.7c3.6,3.2,4.6,9,2.6,16.3c-1.9,7.2-6.4,15-12.6,22c-6.2,7-13.5,12.4-20.4,15.1
			C32,72.9,29,73.6,26.4,73.6z M57.9,16.5c-8,0-19.2,6.3-28.5,16.8c-6.1,6.9-10.5,14.6-12.4,21.6c-1.8,6.9-1,12.4,2.4,15.4
			c1.8,1.6,4.3,2.4,7.1,2.4c8,0,19.2-6.3,28.5-16.8C67.5,41.7,72,25.1,65,18.9C63.1,17.2,60.7,16.5,57.9,16.5z"/>
		<path class="st20" d="M25.7,73.5c-3,0-5.6-0.8-7.6-2.6c-3.6-3.2-4.6-9-2.6-16.4c1.9-7.3,6.5-15.2,12.8-22.3
			c6.3-7.1,13.6-12.5,20.6-15.3c7.1-2.8,12.9-2.6,16.6,0.6c3.6,3.2,4.6,9,2.6,16.4c-1.9,7.3-6.5,15.2-12.8,22.3
			C45.7,67.1,34.1,73.5,25.7,73.5z M57.9,15.6c-2.6,0-5.5,0.6-8.7,1.9c-6.9,2.8-14.1,8.1-20.4,15.2c-6.2,7-10.7,14.9-12.7,22
			c-1.9,7.1-1,12.7,2.4,15.8c7.2,6.4,23.5-0.2,36.3-14.6l0.2,0.2l-0.2-0.2c6.2-7,10.7-14.9,12.7-22c1.9-7.1,1-12.7-2.4-15.8
			C63.3,16.4,60.8,15.6,57.9,15.6z"/>
		<path class="st19" d="M28.9,73.2c-2.8,0-5.2-0.8-6.9-2.4c-3.4-3-4.2-8.4-2.3-15.2c1.9-6.7,6.1-14,11.9-20.5
			c5.8-6.6,12.6-11.6,19-14.3c6.6-2.7,12-2.5,15.4,0.5c3.4,3,4.2,8.4,2.3,15.2c-1.9,6.7-6.1,14-11.9,20.5
			c-5.8,6.6-12.6,11.6-19,14.3C34.2,72.5,31.4,73.2,28.9,73.2z M59,20.1c-2.3,0-5,0.6-8,1.8c-6.2,2.6-12.8,7.5-18.5,13.9
			C20.8,49,16.4,64.3,22.7,69.9c6.3,5.6,21-0.5,32.7-13.7l0,0c5.7-6.4,9.8-13.6,11.6-20.1c1.8-6.4,1.1-11.3-1.9-14
			C63.6,20.8,61.5,20.1,59,20.1z"/>
		<path class="st20" d="M28.3,72.8c-2.7,0-5-0.8-6.7-2.3c-6.7-6-2.3-21.9,9.8-35.6C43.6,21.3,58.9,15,65.6,21
			c6.7,6,2.3,21.9-9.8,35.6l-0.2-0.2l0.2,0.2c-5.9,6.6-12.6,11.7-19,14.3C33.6,72.1,30.8,72.8,28.3,72.8z M58.9,19.3
			c-7.5,0-18.1,6-27,16.1C20,48.7,15.6,64.3,22,70c3.1,2.7,8.2,2.8,14.5,0.2c6.3-2.6,13-7.7,18.8-14.2c11.9-13.4,16.3-29,9.9-34.7
			C63.6,20,61.4,19.3,58.9,19.3z"/>
		<path class="st19" d="M31.8,72c-2.5,0-4.6-0.7-6.2-2.1c-3-2.7-3.7-7.6-2-13.8c1.7-6.1,5.6-12.7,10.9-18.7
			c5.3-6,11.5-10.6,17.3-13.1c5.9-2.5,10.9-2.3,13.9,0.3c3,2.7,3.7,7.6,2,13.8c-1.7,6.1-5.6,12.7-10.9,18.7
			c-5.3,6-11.5,10.6-17.3,13.1C36.7,71.4,34.1,72,31.8,72z M59.6,23.5c-6.7,0-16.3,5.5-24.3,14.5c-10.7,12.1-14.8,26.1-9,31.2
			c2.8,2.4,7.4,2.5,13,0.2c5.7-2.4,11.8-6.9,17-12.8c10.7-12.1,14.8-26.1,9-31.2C63.7,24.1,61.8,23.5,59.6,23.5z"/>
		<path class="st20" d="M31.2,71.8c-2.4,0-4.5-0.7-6-2.1c-3-2.6-3.6-7.5-1.9-13.7c1.7-6.1,5.7-12.8,11-18.9S45.9,26.4,51.8,24
			c5.9-2.5,10.8-2.4,13.8,0.2c3,2.6,3.6,7.5,1.9,13.7c-1.7,6.1-5.7,12.8-11,18.9l0,0C51.1,62.8,44.9,67.5,39,70
			C36.1,71.2,33.5,71.8,31.2,71.8z M59.5,22.8c-2.2,0-4.8,0.6-7.6,1.8c-5.8,2.4-11.9,7-17.2,13c-5.3,6-9.2,12.6-10.9,18.6
			c-1.7,5.9-1.1,10.6,1.7,13.1c2.8,2.5,7.5,2.5,13.2,0.1c5.8-2.4,11.9-7,17.2-13l0,0c5.3-6,9.2-12.6,10.9-18.6
			c1.7-5.9,1.1-10.6-1.7-13.1C63.8,23.4,61.8,22.8,59.5,22.8z"/>
	</g>
	<path class="st5" d="M23.3,74.9c-3.4,0-6.3-1-8.5-2.9c-4-3.6-5.1-10-3-18c2.1-7.8,6.9-16.3,13.7-23.9c6.8-7.6,14.6-13.4,22.1-16.4
		c7.7-3.1,14.2-2.8,18.2,0.8c4,3.6,5.1,10,3,18c-2.1,7.8-6.9,16.3-13.7,23.9l0,0c-6.8,7.6-14.6,13.4-22.1,16.4
		C29.5,74.2,26.2,74.9,23.3,74.9z M57.4,13.3c-2.7,0-5.7,0.7-9,2c-7.2,2.9-14.8,8.5-21.4,15.9c-6.6,7.4-11.3,15.6-13.3,23.1
		c-1.9,7.3-1.1,13.1,2.4,16.2c3.5,3.1,9.3,3.3,16.3,0.5c7.2-2.9,14.8-8.5,21.4-15.9c6.6-7.4,11.3-15.6,13.3-23.1
		c1.9-7.3,1.1-13.1-2.4-16.2C62.9,14.2,60.4,13.3,57.4,13.3z"/>
	<linearGradient id="SVGID_15_" gradientUnits="userSpaceOnUse" x1="70.0327" y1="9.3813" x2="-1.026" y2="87.8799">
		<stop  offset="0" style="stop-color:#415168"/>
		<stop  offset="0.2688" style="stop-color:#2F3646"/>
		<stop  offset="0.5323" style="stop-color:#9FA4AE"/>
		<stop  offset="0.7742" style="stop-color:#E3EBF1"/>
		<stop  offset="1" style="stop-color:#A7B6C7"/>
	</linearGradient>
	<path class="st21" d="M22.8,74.3c-3.4,0-6.3-1-8.4-2.9c-4-3.6-5-9.9-2.9-17.9c2.1-7.8,6.9-16.2,13.6-23.7
		c6.7-7.6,14.5-13.4,22-16.3c7.7-3.1,14.1-2.8,18.1,0.8c4,3.6,5,9.9,2.9,17.9c-2.1,7.8-6.9,16.2-13.6,23.7v0
		c-6.7,7.6-14.5,13.4-22,16.3C28.9,73.6,25.7,74.3,22.8,74.3z M56.7,13.2c-2.6,0-5.7,0.7-9,2C40.5,18,33,23.7,26.4,31
		c-6.5,7.3-11.2,15.5-13.2,23c-1.9,7.3-1.1,13,2.4,16c3.5,3.1,9.2,3.2,16.2,0.4C39,67.6,46.5,62,53.1,54.7
		c6.5-7.3,11.2-15.5,13.2-23c1.9-7.3,1.1-13-2.4-16C62.1,14,59.6,13.2,56.7,13.2z"/>
	<linearGradient id="SVGID_16_" gradientUnits="userSpaceOnUse" x1="19.1381" y1="71.8039" x2="20.6564" y2="57.7339">
		<stop  offset="0" style="stop-color:#000000"/>
		<stop  offset="1" style="stop-color:#000000;stop-opacity:0"/>
	</linearGradient>
	<path class="st22" d="M30,67.7c0,0-4.8-2.4-1-13c0,0-3.3-11.1-16.3-5.4c0,0-7.7,15.5,3.7,20.3C16.4,69.7,21.1,71.6,30,67.7z"/>
	<linearGradient id="SVGID_17_" gradientUnits="userSpaceOnUse" x1="65.4447" y1="15.3105" x2="45.2506" y2="26.2426">
		<stop  offset="0" style="stop-color:#000000"/>
		<stop  offset="1" style="stop-color:#000000;stop-opacity:0"/>
	</linearGradient>
	<path class="st23" d="M63.9,28.4c0,0-4.7-4.3-15.7,2.9c0,0-11.5-1.5-9.4-13.5c0,0,14.7-11.2,23.2-3.6
		C62.1,14.2,66.1,17.4,63.9,28.4z"/>

		<linearGradient id="SVGID_18_" gradientUnits="userSpaceOnUse" x1="147.8675" y1="39.3094" x2="176.5629" y2="-43.9356" gradientTransform="matrix(0.6804 -0.8451 0.7789 0.6271 -59.0278 193.5724)">
		<stop  offset="0" style="stop-color:#415168"/>
		<stop  offset="0.2688" style="stop-color:#2F3646"/>
		<stop  offset="0.5323" style="stop-color:#9FA4AE"/>
		<stop  offset="0.7742" style="stop-color:#E3EBF1"/>
		<stop  offset="1" style="stop-color:#A7B6C7"/>
	</linearGradient>
	<path class="st24" d="M18.8,26.6C-0.6,49.7-5,77.1,9.1,88s41.2,0.9,60.6-22.2s23.8-50.6,9.8-61.4S38.3,3.5,18.8,26.6z M50.7,51.1
		c-12.9,15.3-29.5,23-36.1,17.8c-7.3-5.8-5.3-22.2,9.5-38.5C37.5,15.5,53.2,7.3,60.6,13S63.6,35.8,50.7,51.1z"/>
	<path class="st25" d="M61.8,13.3C60,11.8,57.7,11,55,11c-2.8,0-6,0.8-9.5,2.3c-7,3-14.4,8.7-20.8,16C18.1,36.6,13.4,44.7,11.2,52
		c-2.2,7.4-1.5,13.2,1.9,16.3c1.7,1.5,4,2.3,6.8,2.3c2.8,0,6-0.8,9.5-2.3c7-3,14.4-8.7,20.8-16c6.5-7.3,11.2-15.3,13.4-22.6
		C65.9,22.2,65.2,16.4,61.8,13.3z M61.2,13.9c3.2,2.9,3.8,8.3,1.7,15.4c-2.2,7.2-6.9,15.1-13.3,22.3c-6.4,7.2-13.7,12.8-20.5,15.8
		c-3.4,1.5-6.5,2.3-9.2,2.3c-2.6,0-4.7-0.7-6.3-2.1c-6.7-6-1.5-22.9,11.6-37.7c9.7-11,21.4-18.1,29.7-18.1
		C57.5,11.8,59.6,12.5,61.2,13.9z"/>
	<linearGradient id="SVGID_19_" gradientUnits="userSpaceOnUse" x1="12.7146" y1="36.941" x2="13.3208" y2="50.0754">
		<stop  offset="0" style="stop-color:#000000"/>
		<stop  offset="1" style="stop-color:#000000;stop-opacity:0"/>
	</linearGradient>
	<path class="st26" d="M4.5,50.1l1.6,2.8L22.1,51l-0.2-6L9.1,40.2c0,0-1.4,2.6-2.6,5.2C5.7,47.2,4.8,49.2,4.5,50.1z"/>

		<radialGradient id="SVGID_20_" cx="20.2929" cy="16.2622" r="12.318" gradientTransform="matrix(1 0 0 0.9562 0 17.9253)" gradientUnits="userSpaceOnUse">
		<stop  offset="0" style="stop-color:#000000"/>
		<stop  offset="1" style="stop-color:#000000;stop-opacity:0"/>
	</radialGradient>
	<polygon class="st27" points="21.5,23.4 24.7,29.1 27.7,25.7 29.4,43.8 22.7,44.6 16.8,28.7 	"/>
	<linearGradient id="SVGID_21_" gradientUnits="userSpaceOnUse" x1="-2.7079" y1="58.9751" x2="27.4383" y2="1.9516">
		<stop  offset="0" style="stop-color:#415168"/>
		<stop  offset="0.2688" style="stop-color:#2F3646"/>
		<stop  offset="0.5323" style="stop-color:#9FA4AE"/>
		<stop  offset="0.7742" style="stop-color:#E3EBF1"/>
		<stop  offset="1" style="stop-color:#A7B6C7"/>
	</linearGradient>
	<path class="st28" d="M22.5,32.6c-5.7-7.5-8.9-14.5-6.2-17.3c2.1-2.2,7.3-0.8,12.2,1.3c1.1-0.8,2.5-2.3,4.3-3.5
		C32,12.6,30,11.4,29.2,11c0,0,0,0-0.1,0c-0.8-0.4-1.7-0.8-2.5-1.2c0,0,0,0-0.1,0c-0.8-0.4-1.6-0.7-2.4-1c0,0-0.1,0-0.1,0
		c-0.8-0.3-1.6-0.6-2.3-0.8c0,0-0.1,0-0.1,0c-0.8-0.2-1.5-0.5-2.2-0.7c0,0-0.1,0-0.1,0C18.9,7.1,18.5,7,18.2,7c0,0,0,0,0,0
		c-0.4-0.1-0.7-0.2-1.1-0.2c0,0-0.1,0-0.1,0c-0.3-0.1-0.6-0.1-1-0.2c0,0-0.1,0-0.1,0c-0.3-0.1-0.7-0.1-1-0.1c0,0-0.1,0-0.1,0
		c-0.3,0-0.6-0.1-0.9-0.1c0,0-0.1,0-0.1,0c-0.3,0-0.6,0-0.9-0.1c0,0-0.1,0-0.1,0c-0.3,0-0.5,0-0.8,0c0,0-0.1,0-0.1,0
		c-0.3,0-0.6,0-0.9,0c0,0-0.1,0-0.1,0c-0.2,0-0.5,0-0.7,0.1c-0.1,0-0.1,0-0.2,0C9.6,6.3,9.3,6.4,9,6.4c0,0-0.1,0-0.1,0
		c-0.2,0-0.5,0.1-0.7,0.1c-0.1,0-0.1,0-0.2,0C7.8,6.7,7.6,6.8,7.3,6.8c0,0-0.1,0-0.1,0C7,6.9,6.8,7,6.6,7.1c-0.1,0-0.1,0-0.2,0.1
		C6.2,7.2,6,7.3,5.8,7.4c0,0,0,0-0.1,0C5.5,7.5,5.3,7.6,5.1,7.7C5.1,7.8,5,7.8,5,7.8C4.8,8,4.6,8.1,4.4,8.2c0,0,0,0,0,0
		C4.2,8.4,4,8.5,3.8,8.6c0,0-0.1,0.1-0.1,0.1C3.5,8.9,3.3,9,3.1,9.2C3,9.3,2.9,9.4,2.8,9.6c0,0-0.1,0.1-0.1,0.1
		C2.6,9.8,2.5,9.8,2.5,9.9c0,0.1-0.1,0.1-0.1,0.2c-0.1,0.1-0.1,0.2-0.2,0.2c0,0.1-0.1,0.1-0.1,0.2c-0.1,0.1-0.1,0.2-0.2,0.2
		c0,0.1-0.1,0.1-0.1,0.2c0,0.1-0.1,0.2-0.1,0.2c0,0.1-0.1,0.1-0.1,0.2c0,0.1-0.1,0.2-0.1,0.2c0,0.1-0.1,0.1-0.1,0.2
		c0,0.1-0.1,0.2-0.1,0.2c0,0.1-0.1,0.1-0.1,0.2c0,0.1-0.1,0.2-0.1,0.2c0,0.1-0.1,0.2-0.1,0.2c0,0.1-0.1,0.2-0.1,0.2
		c0,0.1-0.1,0.2-0.1,0.2c0,0.1-0.1,0.2-0.1,0.3c0,0.1,0,0.2-0.1,0.2c0,0.1,0,0.2-0.1,0.3c0,0.1,0,0.2-0.1,0.3c0,0.1,0,0.2-0.1,0.3
		c0,0.1,0,0.2-0.1,0.3c0,0.1,0,0.2,0,0.3c0,0.1,0,0.2,0,0.3c0,0.1,0,0.2,0,0.3c0,0.1,0,0.2,0,0.3c0,0.1,0,0.2,0,0.3
		c0,0.1,0,0.2,0,0.3c0,0.1,0,0.2,0,0.3c0,0.1,0,0.2,0,0.3c0,0.1,0,0.2,0,0.3c0,0.1,0,0.2,0,0.3c0,0.1,0,0.2,0,0.3c0,0.1,0,0.2,0,0.3
		c0,0.1,0,0.2,0,0.2c0,0.1,0,0.2,0,0.4c0,0.1,0,0.2,0,0.2c0,0.1,0,0.3,0,0.4c0,0.1,0,0.1,0,0.2c0,0.1,0,0.3,0,0.4c0,0,0,0.1,0,0.1
		c0,0.2,0,0.3,0.1,0.5c0,0,0,0,0,0c0.2,1.3,0.5,2.6,0.8,3.9c0,0,0,0,0,0c0.1,0.2,0.1,0.4,0.2,0.6c0,0,0,0,0,0.1
		c0.1,0.2,0.1,0.4,0.2,0.6c0,0,0,0.1,0,0.1c0.1,0.2,0.1,0.4,0.2,0.6c0,0,0,0.1,0,0.1c0.1,0.2,0.1,0.4,0.2,0.6c0,0,0,0.1,0,0.1
		c0.1,0.2,0.2,0.4,0.2,0.6c0,0,0,0.1,0,0.1c0.1,0.2,0.2,0.4,0.3,0.6c0,0,0,0.1,0,0.1c0.1,0.2,0.2,0.4,0.3,0.6c0,0,0,0.1,0,0.1
		C3,29.8,3,30,3.1,30.2c0,0,0,0.1,0,0.1c0.1,0.2,0.2,0.4,0.3,0.7c0,0,0,0,0,0.1c0.1,0.2,0.2,0.5,0.3,0.7c0,0,0,0,0,0
		C4,32,4.1,32.3,4.2,32.5c0,0,0,0,0,0c2.1,4.1,4.7,8,8.1,12.4c-1.3,1.8-2.1,3.1-2.1,3.1c7.3-0.6,14.5-1.1,14.5-1.1l0-16.5
		C23.9,31.1,23.2,31.9,22.5,32.6z"/>
	<path class="st25" d="M24.4,31.1l-1.7,2l-0.3-0.3c-0.4-0.5-10.1-11.4-6.2-17.7v0c0,0,0.3-0.7,1.5-1.1c0.6-0.2,1.3-0.3,2-0.3
		c2.3,0,5.4,0.9,9.1,2.6l0.2,0.1l-0.6,0.5l-0.1,0c-3.6-1.6-6.4-2.5-8.5-2.5c-0.7,0-1.3,0.1-1.9,0.3c-0.9,0.3-1.2,0.8-1.2,0.8
		c-3.3,5.4,4.6,15.1,5.9,16.6l2.3-2.8l0.1,17.7L24.6,47L24.4,31.1z"/>
	<linearGradient id="SVGID_22_" gradientUnits="userSpaceOnUse" x1="28.3677" y1="19.5792" x2="23.2422" y2="15.3582">
		<stop  offset="0" style="stop-color:#000000"/>
		<stop  offset="1" style="stop-color:#000000;stop-opacity:0"/>
	</linearGradient>
	<path class="st29" d="M22.2,22.6c0,0,6.3-6.5,10.6-9.5c0,0-3.8-2.4-7.6-3.8c0,0-6.4,2.3-6.7,12.4c0,0,1.1,0.1,1.7,0.3
		C20.9,22.1,22.2,22.6,22.2,22.6z"/>
	<linearGradient id="SVGID_23_" gradientUnits="userSpaceOnUse" x1="5.8863" y1="52.667" x2="18.9862" y2="7.4949">
		<stop  offset="0" style="stop-color:#2F3646"/>
		<stop  offset="1" style="stop-color:#A7B6C7"/>
	</linearGradient>
	<path class="st30" d="M21.5,44.2L21.2,36l-2.4,2.7c0,0-7.7-9-11.3-19.1C4,9.9,6.6,7.4,8.2,6.7c0,0-4.5,1.2-3.2,7.7
		S11.9,35.1,18.3,41L21.5,44.2z"/>
	<path class="st31" d="M20.7,43.4l-0.2-5l-1.7,2.2l-0.1-0.1c0,0-4-4.5-8.2-11.6c-4-7.1-5.9-13-5.6-18.1l0.3,0
		C5,15.8,6.8,21.7,10.8,28.7c3.7,6.4,7.3,10.6,8,11.4l2-2.6l0.2,5.8L20.7,43.4z"/>
	<linearGradient id="SVGID_24_" gradientUnits="userSpaceOnUse" x1="27.0527" y1="18.5752" x2="9.4549" y2="28.4546">
		<stop  offset="0" style="stop-color:#415168"/>
		<stop  offset="1" style="stop-color:#A7B6C7"/>
	</linearGradient>
	<path class="st32" d="M21.5,44.2l-0.8-0.9l-2.2-2c-2-2.6-11.1-14.3-13.4-25.1c-1.2-5.5,0.4-8,2.3-9.1C7.4,7.1,7.5,7,7.5,7
		c-2,1-4,3.5-3.6,9.1c0.8,10.8,12.6,26,12.6,26l-1.8,2.4L21.5,44.2z"/>
	<g>
		<g>
			<radialGradient id="SVGID_25_" cx="20.5374" cy="36.559" r="28.0703" gradientUnits="userSpaceOnUse">
				<stop  offset="0" style="stop-color:#A4FF00"/>
				<stop  offset="1" style="stop-color:#7BBF00"/>
			</radialGradient>
			<path class="st33" d="M19,40.7c0,0-0.3-0.2-0.4-0.5c-0.2-0.2-0.5-0.5-0.8-1c-0.3-0.4-0.8-0.9-1.2-1.5c-0.2-0.3-0.5-0.6-0.7-1
				c-0.3-0.3-0.5-0.7-0.8-1.1c-0.5-0.8-1.1-1.6-1.7-2.5c-0.1-0.2-0.3-0.5-0.5-0.7c-0.1-0.2-0.3-0.5-0.4-0.7c-0.3-0.5-0.6-1-0.9-1.5
				c-0.3-0.5-0.6-1-0.9-1.6c-0.3-0.5-0.6-1.1-0.9-1.6c-0.6-1.1-1.1-2.2-1.6-3.4l-0.4-0.9c-0.1-0.3-0.2-0.6-0.3-0.9
				c-0.1-0.3-0.2-0.6-0.3-0.9l-0.2-0.4l-0.1-0.4c-0.2-0.6-0.4-1.2-0.6-1.8c-0.2-0.6-0.3-1.2-0.5-1.8c-0.3-1.2-0.5-2.3-0.5-3.4
				c-0.1-1.1,0-2.1,0.2-3C5.6,9.4,6,8.6,6.5,8c0.5-0.6,1-1,1.5-1.2c0.5-0.2,0.9-0.3,1.2-0.4c0.3,0,0.4,0,0.4,0s-0.2,0-0.4,0
				C8.9,6.4,8.5,6.5,8,6.7C7.5,6.9,6.9,7.3,6.4,7.9c-0.5,0.6-1,1.4-1.2,2.3c-0.3,0.9-0.4,2-0.3,3.1c0,1.1,0.2,2.3,0.4,3.5
				c0.1,0.6,0.3,1.2,0.4,1.8c0.2,0.6,0.3,1.2,0.5,1.8l0.1,0.5l0.2,0.5c0.1,0.3,0.2,0.6,0.3,0.9c0.1,0.3,0.2,0.6,0.3,0.9l0.4,0.9
				c0.5,1.2,1,2.4,1.5,3.5c0.3,0.6,0.6,1.1,0.8,1.7c0.3,0.6,0.6,1.1,0.9,1.6c0.3,0.5,0.6,1,0.9,1.5c0.1,0.3,0.3,0.5,0.4,0.7
				c0.1,0.2,0.3,0.5,0.4,0.7c0.6,0.9,1.1,1.8,1.7,2.6c0.3,0.4,0.5,0.8,0.8,1.1c0.3,0.4,0.5,0.7,0.7,1c0.5,0.6,0.9,1.2,1.2,1.6
				c0.3,0.4,0.6,0.8,0.8,1c0.2,0.2,0.7,0.9,0.7,0.9L19,40.7z"/>
			<radialGradient id="SVGID_26_" cx="20.3703" cy="36.0755" r="27.6316" gradientUnits="userSpaceOnUse">
				<stop  offset="0" style="stop-color:#A4FF00"/>
				<stop  offset="1" style="stop-color:#7BBF00"/>
			</radialGradient>
			<path class="st34" d="M16.6,40.3c0,0-5.5-7.3-9.5-16.4S4.6,8.8,6.9,7.5c0,0-3.4,2.1-1.3,10.6c0,0,2,7.5,6.4,14.5l4.8,7.5
				L16.6,40.3z"/>
		</g>
		<radialGradient id="SVGID_27_" cx="21.1295" cy="36.8346" r="27.6316" gradientUnits="userSpaceOnUse">
			<stop  offset="0" style="stop-color:#A4FF00"/>
			<stop  offset="1" style="stop-color:#7BBF00"/>
		</radialGradient>
		<polygon class="st35" points="16.7,43.5 20.7,43.3 20.5,38.5 		"/>
	</g>
	<linearGradient id="SVGID_28_" gradientUnits="userSpaceOnUse" x1="68.8482" y1="65.1615" x2="78.5656" y2="108.4851">
		<stop  offset="0" style="stop-color:#415168"/>
		<stop  offset="1" style="stop-color:#A7B6C7"/>
	</linearGradient>
	<path class="st36" d="M52.3,75.8c0,0,11.2,9.4,24.5,12.7C90,91.6,91.8,85.5,92,83.9c0,0-2.2,6.7-13.4,3.4C67.3,84,54,74.4,54,74.4
		S51.7,74.8,52.3,75.8z"/>
	<linearGradient id="SVGID_29_" gradientUnits="userSpaceOnUse" x1="0.9375" y1="43.0962" x2="80.8087" y2="43.0962">
		<stop  offset="0" style="stop-color:#415168"/>
		<stop  offset="0.2688" style="stop-color:#2F3646"/>
		<stop  offset="1" style="stop-color:#A7B6C7"/>
	</linearGradient>
	<path class="st37" d="M80.7,16.4c-0.2-2.1-0.6-4.1-1.3-5.9c-0.7-1.8-1.7-3.5-2.8-4.8c-0.1-0.2-0.3-0.3-0.4-0.5
		c-0.1-0.2-0.3-0.3-0.5-0.5c-0.2-0.2-0.3-0.3-0.5-0.4L74.9,4L74.9,4l0,0l0,0l-0.1-0.1c-0.6-0.5-1.3-1-2-1.4
		c-1.4-0.8-2.7-1.3-4.1-1.7c-0.1,0-0.3-0.1-0.4-0.1c0.9,0.4,1.8,0.9,2.7,1.4C86.6,11,75,35.2,75,35.2c-1.8,4.3-4.1,8.5-6.7,12.5
		c-2.6,4.1-5.6,8-8.9,11.7c-3.3,3.7-6.8,7.1-10.6,10.2c-3.7,3.1-7.6,5.8-11.7,8.1c-4,2.2-8.1,4-12.2,5c-2,0.5-4,0.8-6,0.9
		c-1.9,0.1-3.8,0-5.6-0.4c-1.8-0.4-3.4-1-4.7-1.9C8,81,7.4,80.5,6.8,80c-0.6-0.5-1.2-1-1.6-1.6c-2.3-3.1-3.4-6.4-3.8-8.8
		c0,0,0.3,1.8,0.4,2.4c0.2,1.1,1.7,5.8,2.6,7c0.5,0.6,1,1.2,1.6,1.8c0.6,0.6,1.3,1.2,2,1.7c1.5,1,3.2,1.8,5.1,2.3
		c1.9,0.5,3.9,0.7,6,0.7c2.1,0,4.2-0.3,6.4-0.8c2.2-0.5,4.3-1.1,6.5-2c2.1-0.8,4.3-1.8,6.4-2.9c4.2-2.2,8.3-5,12.2-8.2
		c3.9-3.2,7.5-6.7,10.9-10.4c3.4-3.8,6.4-7.8,9.1-12.1c1.3-2.1,2.6-4.3,3.7-6.4c1.1-2.2,2.1-4.4,3-6.6c1.8-4.4,2.9-8.9,3.4-13.3
		C80.8,20.6,80.9,18.4,80.7,16.4z"/>
	<radialGradient id="SVGID_30_" cx="42.9036" cy="58.9519" r="62.6003" gradientUnits="userSpaceOnUse">
		<stop  offset="0" style="stop-color:#A4FF00"/>
		<stop  offset="1" style="stop-color:#7BBF00"/>
	</radialGradient>
	<path class="st38" d="M60,0.6c1.2-0.2,3-0.4,5.2-0.3c1.1,0.1,2.4,0.2,3.7,0.5c1.3,0.3,2.8,0.8,4.2,1.6c0.7,0.4,1.4,0.8,2.1,1.4
		c0.2,0.1,0.3,0.3,0.5,0.4c0.2,0.1,0.3,0.3,0.5,0.4c0.2,0.1,0.3,0.3,0.5,0.4c0.2,0.1,0.3,0.3,0.5,0.5c1.2,1.4,2.2,3,3,4.8
		c0.7,1.8,1.2,3.9,1.4,6c0.2,2.1,0.2,4.3,0,6.6c-0.5,4.5-1.7,9.1-3.4,13.6c-0.9,2.3-1.9,4.5-3.1,6.8c-1.1,2.2-2.4,4.4-3.8,6.6
		c-2.7,4.3-5.9,8.4-9.4,12.3l-1.3,1.4c-0.4,0.5-0.9,0.9-1.3,1.4l-0.7,0.7l-0.7,0.7c-0.5,0.5-0.9,0.9-1.4,1.4
		c-1.9,1.8-3.8,3.5-5.8,5.1c-2,1.6-4,3.1-6.1,4.5c-2.1,1.4-4.2,2.6-6.4,3.8c-2.2,1.1-4.4,2.1-6.6,2.9c-2.2,0.8-4.4,1.4-6.6,1.9
		c-2.2,0.4-4.4,0.7-6.5,0.6c-2.1,0-4.2-0.4-6.1-1c-1.9-0.6-3.6-1.5-5-2.6c-0.2-0.1-0.3-0.3-0.5-0.4l-0.3-0.2l-0.1-0.1
		c0,0,0,0-0.1-0.1l-0.1-0.1C6,81.6,5.7,81.3,5.4,81c-0.1-0.2-0.3-0.3-0.4-0.5c-0.1-0.2-0.3-0.3-0.4-0.5c-0.1-0.2-0.2-0.3-0.4-0.5
		C4.2,79.4,4,79.2,3.9,79c-0.9-1.4-1.4-2.7-1.9-4c-0.4-1.3-0.7-2.5-0.8-3.7C1,69,0.9,67.4,0.9,66.2c0-0.6,0.2,2.7,0.6,4.9
		c0.2,1.1,0.6,2.4,1,3.7c0.5,1.3,1.1,2.6,1.9,3.8c0.1,0.2,0.2,0.3,0.3,0.5c0.1,0.2,0.2,0.3,0.4,0.5c0.1,0.2,0.2,0.3,0.4,0.5
		c0.1,0.1,0.3,0.3,0.4,0.4c0.3,0.3,0.6,0.6,0.9,0.9L7,81.4c0,0,0.1,0,0,0l0.1,0l0.2,0.2c0.2,0.1,0.3,0.3,0.5,0.4
		c1.4,1,3,1.8,4.8,2.3c3.6,1.1,7.8,0.9,12,0c2.1-0.5,4.3-1.1,6.4-1.9c2.1-0.8,4.3-1.8,6.3-2.9c4.2-2.2,8.3-5,12.2-8.2
		c1.9-1.6,3.8-3.2,5.7-5c0.5-0.4,0.9-0.9,1.4-1.3l0.7-0.7l0.7-0.7c0.4-0.5,0.9-0.9,1.3-1.4l1.3-1.4c3.4-3.8,6.5-7.8,9.2-12
		c1.3-2.1,2.6-4.2,3.8-6.4c1.1-2.2,2.2-4.4,3.1-6.6c1.8-4.4,3-8.9,3.6-13.2c0.3-2.2,0.3-4.3,0.2-6.3c-0.2-2-0.6-4-1.2-5.7
		c-0.6-1.8-1.6-3.3-2.6-4.6c-0.1-0.2-0.2-0.3-0.4-0.5c-0.2-0.2-0.3-0.3-0.5-0.5c-0.1-0.1-0.3-0.3-0.4-0.4c-0.2-0.1-0.3-0.3-0.5-0.4
		c-0.6-0.5-1.3-1-1.9-1.4c-1.3-0.8-2.7-1.3-4-1.7c-1.3-0.4-2.5-0.5-3.6-0.6C63,0.5,59.4,0.7,60,0.6z"/>
	<linearGradient id="SVGID_31_" gradientUnits="userSpaceOnUse" x1="57.2328" y1="58.167" x2="47.0743" y2="73.2326">
		<stop  offset="0" style="stop-color:#415168"/>
		<stop  offset="0.2688" style="stop-color:#2F3646"/>
		<stop  offset="1" style="stop-color:#A7B6C7"/>
	</linearGradient>
	<path class="st39" d="M48.4,72.4l0.4,0.2l3.1-2.4l-0.4-2.7l0-0.1c-0.3-0.1-0.7-0.1-1-0.1c-2.3,0-4.2,1.9-4.2,4.2c0,0.1,0,0.1,0,0.2
		L48.4,72.4z"/>
	<linearGradient id="SVGID_32_" gradientUnits="userSpaceOnUse" x1="1.1727" y1="43.9297" x2="82.6139" y2="43.9297">
		<stop  offset="0" style="stop-color:#677486"/>
		<stop  offset="1" style="stop-color:#A7B6C7"/>
	</linearGradient>
	<path class="st40" d="M73.3,2.3c1.4,0.8,2.9,1.8,4.1,3.2c1.3,1.3,2.4,3,3.2,4.8c0.8,1.8,1.4,3.9,1.7,6c0.3,2.2,0.4,4.4,0.2,6.7
		c-0.3,4.6-1.4,9.3-3.2,14c-1.7,4.7-4,9.3-6.8,13.7c-2.8,4.4-6,8.7-9.5,12.6c-3.5,3.9-7.4,7.6-11.5,10.8c-2,1.6-4.2,3.1-6.3,4.5
		c-2.2,1.4-4.4,2.6-6.6,3.7c-4.5,2.2-9.1,3.8-13.6,4.6c-2.3,0.4-4.5,0.5-6.7,0.4c-2.2-0.1-4.3-0.5-6.2-1.2c-1.9-0.7-3.6-1.6-5.1-2.8
		c-0.7-0.6-1.4-1.2-1.9-1.9c-0.6-0.7-1-1.5-1.5-2.2c-1.2-2.3-2.1-4.8-2.5-9.3c0.2,2,0.8,3.8,1.2,5.1c0.4,1.3,1,2.7,1.9,4
		c0.9,1.3,2,2.6,3.4,3.6c1.4,1.1,3,1.9,4.8,2.5c3.7,1.2,7.9,1.2,12.3,0.4c4.4-0.8,8.8-2.5,13.1-4.7c4.3-2.2,8.5-5,12.5-8.2
		c4-3.2,7.8-6.8,11.2-10.7c3.5-3.9,6.6-8,9.4-12.3c2.7-4.3,5.1-8.8,6.8-13.4c0.9-2.3,1.6-4.6,2.2-6.8c0.6-2.3,1-4.5,1.2-6.7
		c0.4-4.4,0-8.7-1.5-12.2c-1.4-3.6-4-6.3-6.7-7.8c-2.7-1.6-5.5-2.2-7.7-2.4C63,0.2,68.9-0.2,73.3,2.3z"/>
	<linearGradient id="SVGID_33_" gradientUnits="userSpaceOnUse" x1="51.1264" y1="69.1365" x2="60.8438" y2="112.4601">
		<stop  offset="0" style="stop-color:#415168"/>
		<stop  offset="1" style="stop-color:#A7B6C7"/>
	</linearGradient>
	<path class="st41" d="M52.4,70.5L49,72.9l0.4,3c0.4,0.1,0.8,0.2,1.2,0.2c2.3,0,4.3-1.9,4.3-4.3c0-0.2,0-0.3,0-0.5L52.4,70.5z"/>

		<linearGradient id="SVGID_34_" gradientUnits="userSpaceOnUse" x1="70.3533" y1="69.3086" x2="90.073" y2="90.2607" gradientTransform="matrix(0.9997 -2.297642e-02 2.297642e-02 0.9997 3.0208 13.3055)">
		<stop  offset="0" style="stop-color:#2F3646"/>
		<stop  offset="1" style="stop-color:#A7B6C7"/>
	</linearGradient>
	<path class="st42" d="M92.1,83.3c0,0-3.8,13-36.6-10.2l-0.6-1.8l-1.7-0.5l-0.5,2.6C52.6,73.4,87.5,98.1,92.1,83.3z"/>
	<g>
		<g>
			<radialGradient id="SVGID_35_" cx="42.9431" cy="58.9519" r="62.5579" gradientUnits="userSpaceOnUse">
				<stop  offset="0" style="stop-color:#A4FF00"/>
				<stop  offset="1" style="stop-color:#7BBF00"/>
			</radialGradient>
			<ellipse class="st43" cx="50.7" cy="71.8" rx="2.6" ry="2.5"/>
			<radialGradient id="SVGID_36_" cx="42.9431" cy="58.9519" r="62.5579" gradientUnits="userSpaceOnUse">
				<stop  offset="0" style="stop-color:#A4FF00"/>
				<stop  offset="1" style="stop-color:#7BBF00"/>
			</radialGradient>
			<path class="st44" d="M52.4,71.9c0,0,0.1,0.1,0.4,0.3c0.3,0.2,0.6,0.5,1.1,0.9c0.5,0.4,1.1,0.9,1.8,1.4c0.4,0.3,0.7,0.5,1.1,0.8
				c0.4,0.3,0.8,0.6,1.3,0.9c0.9,0.6,1.9,1.3,2.9,2c0.3,0.2,0.5,0.3,0.8,0.5c0.3,0.2,0.6,0.3,0.8,0.5c0.6,0.3,1.1,0.7,1.7,1
				c0.6,0.3,1.2,0.7,1.8,1c0.6,0.3,1.3,0.7,1.9,1c1.3,0.6,2.6,1.3,4,1.9l1,0.4c0.3,0.1,0.7,0.3,1,0.4c0.3,0.1,0.7,0.3,1,0.4l0.5,0.2
				l0.5,0.2c0.7,0.2,1.4,0.4,2.1,0.7c0.7,0.2,1.4,0.4,2,0.5c1.3,0.3,2.7,0.5,3.9,0.6c1.3,0.1,2.5,0,3.5-0.3c1.1-0.3,2-0.7,2.7-1.3
				c0.7-0.6,1.1-1.2,1.4-1.8c0.3-0.6,0.4-1.1,0.4-1.4c0.1-0.3,0.1-0.5,0.1-0.5s0,0.2,0,0.5c0,0.3-0.1,0.8-0.4,1.4
				c-0.2,0.6-0.7,1.3-1.3,1.9c-0.7,0.6-1.6,1.1-2.7,1.4c-1.1,0.3-2.3,0.4-3.6,0.4c-1.3,0-2.7-0.2-4-0.4c-0.7-0.1-1.4-0.3-2.1-0.5
				c-0.7-0.2-1.4-0.4-2.1-0.6l-0.5-0.1l-0.5-0.2c-0.4-0.1-0.7-0.2-1.1-0.4c-0.4-0.1-0.7-0.2-1.1-0.4l-1-0.4
				c-1.4-0.5-2.8-1.1-4.1-1.7c-0.7-0.3-1.3-0.6-2-0.9c-0.6-0.3-1.3-0.7-1.9-1c-0.6-0.3-1.2-0.7-1.8-1c-0.3-0.2-0.6-0.3-0.9-0.5
				c-0.3-0.2-0.6-0.3-0.8-0.5c-1.1-0.6-2.1-1.3-3-1.9c-0.5-0.3-0.9-0.6-1.3-0.9c-0.4-0.3-0.8-0.6-1.2-0.8c-0.7-0.5-1.4-1-1.9-1.4
				c-0.5-0.4-0.9-0.7-1.2-0.9c-0.3-0.2-0.4-0.3-0.4-0.3L52.4,71.9z"/>
			<radialGradient id="SVGID_37_" cx="42.9431" cy="58.9519" r="62.5579" gradientUnits="userSpaceOnUse">
				<stop  offset="0" style="stop-color:#A4FF00"/>
				<stop  offset="1" style="stop-color:#7BBF00"/>
			</radialGradient>
			<path class="st45" d="M52.8,74.5c0,0,8.5,6.4,19.1,11c10.6,4.6,17.6,2.7,19.1,0.1c0,0-2.4,3.9-12.3,1.6c0,0-8.7-2.3-16.8-7.4
				l-8.7-5.6L52.8,74.5z"/>
		</g>
		<path class="st46" d="M84.7,87.8c-2.4,0-5.5-0.5-9.7-2.1c-13.1-5-21.9-12.7-21.9-12.8l0.2-0.3c0.1,0.1,8.8,7.8,21.9,12.8
			c12.9,5,16.2-0.5,16.2-0.5C91.2,85.1,89.9,87.8,84.7,87.8z"/>
	</g>
	<path class="st46" d="M80.6,17.4c-0.1-1.9-0.3-3.7-0.9-5.5c-0.5-1.8-1.3-3.5-2.5-5c-1.1-1.5-2.5-2.8-4.1-3.8
		c-1.6-1-3.3-1.7-5.1-2.2c-1.8-0.5-3.6-0.7-5.5-0.7c1.8,0.1,3.7,0.3,5.5,0.8c1.8,0.5,3.5,1.2,5,2.2c1.5,1,2.9,2.3,4,3.8
		c1.1,1.5,1.8,3.2,2.4,4.9c0.5,1.8,0.8,3.6,0.8,5.4c0.1,1.8-0.1,3.7-0.3,5.5c-0.2,1.8-0.6,3.6-1.1,5.4c-0.5,1.8-1,3.5-1.6,5.3
		l-0.5,1.3l-0.2,0.6l-0.3,0.6l-0.5,1.3l-0.6,1.3c-0.4,0.8-0.8,1.7-1.2,2.5c-0.4,0.8-0.9,1.6-1.3,2.4c-0.9,1.6-1.9,3.2-2.9,4.7
		c-1,1.5-2.1,3.1-3.2,4.5c-1.1,1.5-2.2,2.9-3.4,4.4c-1.2,1.4-2.4,2.8-3.6,4.2c-1.2,1.4-2.5,2.7-3.8,4c-1.3,1.3-2.6,2.5-3.9,3.7
		c-0.2,0-0.4,0-0.6,0c-0.3,0-0.5,0-0.8,0c-0.5,0.1-1,0.2-1.5,0.6c-0.1,0.1-0.2,0.2-0.3,0.3c-0.1,0.1-0.2,0.2-0.3,0.3
		c-0.1,0.1-0.1,0.2-0.2,0.3c-0.1,0.1-0.1,0.2-0.2,0.4c-0.1,0.2-0.1,0.5-0.2,0.8c0,0.1,0,0.3,0,0.4c0,0.1,0,0.2,0,0.2
		C47,73.2,46,73.9,45,74.7c-1,0.8-2.1,1.5-3.2,2.2c-2.2,1.4-4.4,2.6-6.7,3.8c-2.3,1.1-4.7,2.1-7.1,2.9c-2.4,0.8-5,1.4-7.5,1.6
		c-2.6,0.2-5.2,0-7.6-0.8c-1.2-0.4-2.4-0.9-3.5-1.6c-1.1-0.7-2.1-1.4-3-2.3c-1.8-1.8-3.1-4-4-6.4c-0.2-0.4-0.6-1.9-0.7-2.5
		c0,0,0.1,1,0.5,2.4c0.8,2.5,2.1,4.8,4,6.6C7,81.5,8.1,82.3,9.2,83c1.1,0.7,2.3,1.2,3.5,1.7c1.2,0.4,2.5,0.7,3.8,0.8
		c1.3,0.1,2.6,0.1,3.9,0c2.6-0.2,5.2-0.8,7.6-1.5c2.5-0.8,4.9-1.8,7.2-2.9c2.3-1.1,4.6-2.4,6.8-3.8c1.1-0.7,2.2-1.4,3.2-2.2
		c1-0.8,2.1-1.6,3-2.5l0.1-0.1l0-0.1c0-0.1,0-0.2,0-0.3c0-0.1,0-0.2,0-0.3c0-0.2,0.1-0.4,0.2-0.6c0.1-0.4,0.4-0.8,0.7-1
		c0.3-0.3,0.8-0.4,1.2-0.5c0.2,0,0.4,0,0.7,0c0.2,0,0.5,0,0.7,0.1l0.1,0l0.1-0.1c1.4-1.2,2.7-2.5,4.1-3.8c1.3-1.3,2.6-2.6,3.8-4
		c1.2-1.4,2.4-2.8,3.6-4.2c1.2-1.4,2.3-2.9,3.4-4.4c1.1-1.5,2.1-3,3.2-4.6c1-1.6,2-3.1,2.9-4.8c0.5-0.8,0.9-1.6,1.3-2.4
		c0.4-0.8,0.8-1.7,1.2-2.5l0.6-1.3l0.5-1.3l0.3-0.6l0.2-0.7l0.5-1.3c0.6-1.8,1.2-3.5,1.6-5.3c0.4-1.8,0.8-3.6,1-5.5
		C80.6,21.1,80.7,19.2,80.6,17.4z"/>
</g>
</svg>
