<svg width="50" height="55" viewBox="0 0 50 55" version="1.1" xmlns="http://www.w3.org/2000/svg" xmlns:xlink="http://www.w3.org/1999/xlink">
<title>swipe</title>
<desc>Created using Figma</desc>
<g id="Canvas" transform="translate(-5180 -4684)">
<g id="swipe">
<g id="Rectangle 2">
<use xlink:href="#path0_fill" transform="matrix(-0.707107 0.707107 -0.707107 -0.707107 5193.33 4703.62)" fill="#C2C2C2"/>
</g>
<g id="Rectangle 2.1">
<use xlink:href="#path0_fill" transform="matrix(0.707107 0.707107 -0.707107 0.707107 5191.21 4684.52)" fill="#C2C2C2"/>
</g>
<g id="Rectangle 2.2">
<use xlink:href="#path0_fill" transform="matrix(0.707107 -0.707107 0.707107 0.707107 5216.6 4686.64)" fill="#C2C2C2"/>
</g>
<g id="Rectangle 2.3">
<use xlink:href="#path0_fill" transform="matrix(-0.707107 -0.707107 0.707107 -0.707107 5218.72 4705.74)" fill="#C2C2C2"/>
</g>
<g id="Group">
<g id="Vector">
<use xlink:href="#path1_fill" transform="matrix(0.707107 0.707107 -0.707107 0.707107 5206.68 4703)" fill="#C2C2C2"/>
</g>
</g>
</g>
</g>
<defs>
<path id="path0_fill" d="M 0 0L 3 0L 3 15L 0 15L 0 0Z"/>
<path id="path1_fill" d="M 1.67598 1.90875C 1.30354 1.90875 0.744879 2.09497 0.558659 2.46741C -0.18622 3.21229 -0.18622 4.14339 0.558659 4.88827L 14.5251 18.8547C 14.7114 19.041 14.8976 19.4134 14.7114 19.7858C 14.5251 20.1583 14.3389 20.3445 13.9665 20.3445L 4.65549 21.8343C 3.53817 22.0205 2.60708 22.9516 2.60708 24.0689C 2.60708 24.6276 2.97952 25 3.53817 25L 21.0428 25C 23.2775 25 25.3259 24.0689 27.0019 22.5791L 29.9814 19.5996C 31.4711 18.1099 32.4022 15.8752 32.4022 13.6406C 32.4022 11.5922 31.6574 9.54376 30.1676 8.054L 23.2775 0.418994C 22.7188 -0.139665 21.6015 -0.139665 20.8566 0.418994C 20.6704 0.791434 20.4842 1.35009 20.4842 1.72253C 20.4842 2.09497 20.6704 2.65363 21.0428 2.83985C 21.4153 3.21229 21.4153 3.77095 21.0428 4.14339C 20.6704 4.51583 20.1117 4.51583 19.7393 4.14339L 17.8771 2.28119C 17.1322 1.53631 16.2011 1.53631 15.4562 2.28119C 14.7114 3.02607 14.7114 3.95717 15.4562 4.70205L 17.3184 6.56425C 17.5047 6.93669 17.5047 7.12291 17.5047 7.49534C 17.5047 7.86778 17.5047 8.054 17.3184 8.24022C 16.946 8.61266 16.3873 8.61266 16.0149 8.24022L 12.2905 4.51583C 11.5456 3.77095 10.6145 3.77095 9.86965 4.51583C 9.12477 5.26071 9.12477 6.19181 9.86965 6.93669L 13.594 10.6611C 13.7803 10.6611 13.7803 10.8473 13.7803 11.2197C 13.7803 11.5922 13.7803 11.7784 13.594 11.9646C 13.2216 12.3371 12.6629 12.3371 12.2905 11.9646L 2.97952 2.65363C 2.60708 2.09497 2.04842 1.90875 1.67598 1.90875Z"/>
</defs>
</svg>
