<svg width="26" height="16" viewBox="0 0 26 16" version="1.1" xmlns="http://www.w3.org/2000/svg" xmlns:xlink="http://www.w3.org/1999/xlink">
<title>Logo 1</title>
<desc>Created using Figma</desc>
<g id="Canvas" transform="translate(-5364 -5882)">
<g id="Logo 1">
<use xlink:href="#path0_fill" transform="translate(5364 5882.73)" fill="#231F20"/>
</g>
</g>
<defs>
<path id="path0_fill" fill-rule="evenodd" d="M 25.4014 1.00528C 25.5843 0.413941 25.4014 0 24.5479 0L 21.7029 0C 20.9714 0 20.6462 0.374518 20.4633 0.788458C 20.4633 0.788458 19.0205 4.21825 16.9681 6.42594C 16.2975 7.07641 16.013 7.27353 15.6472 7.27353C 15.4644 7.27353 15.2002 7.07641 15.2002 6.48507L 15.2002 1.00528C 15.2002 0.295672 14.997 0 14.3873 0L 9.91669 0C 9.46963 0 9.18513 0.335095 9.18513 0.630767C 9.18513 1.30096 10.2012 1.45865 10.3231 3.31153L 10.3231 7.37209C 10.3231 8.2591 10.1605 8.41679 9.79477 8.41679C 8.83968 8.41679 6.48243 4.987 5.10059 1.04471C 4.8161 0.315383 4.55193 0 3.82037 0L 0.975413 0C 0.162569 0 0 0.374518 0 0.788458C 0 1.51778 0.955092 5.14469 4.49096 9.93458C 6.84821 13.2067 10.1605 14.9807 13.1681 14.9807C 14.9766 14.9807 15.2002 14.5865 15.2002 13.9163L 15.2002 11.4326C 15.2002 10.6442 15.3627 10.4865 15.9521 10.4865C 16.3788 10.4865 17.09 10.6836 18.7767 12.2605C 20.7072 14.1331 21.0323 14.9807 22.1094 14.9807L 24.9543 14.9807C 25.7671 14.9807 26.1736 14.5865 25.9297 13.8177C 25.6655 13.049 24.7511 11.9254 23.5318 10.5851C 22.8612 9.81631 21.8655 9.00814 21.581 8.5942C 21.1543 8.06199 21.2762 7.82545 21.581 7.37209C 21.581 7.35238 25.0559 2.62162 25.4014 1.00528Z"/>
</defs>
</svg>
