<svg width="50" height="67" viewBox="0 0 50 67" version="1.1" xmlns="http://www.w3.org/2000/svg" xmlns:xlink="http://www.w3.org/1999/xlink">
<title>pin</title>
<desc>Created using Figma</desc>
<g id="Canvas" transform="translate(-6448 -565)">
<g id="pin">
<g id="Union">
<use xlink:href="#path0_fill" transform="translate(6448 565)" fill="#8547AD"/>
</g>
<g id="Ellipse">
<use xlink:href="#path1_fill" transform="translate(6453 570)" fill="#FFFFFF"/>
</g>
<g id="Vector">
<use xlink:href="#path2_fill" transform="translate(6467 580)" fill="#8547AD"/>
</g>
</g>
</g>
<defs>
<path id="path0_fill" fill-rule="evenodd" d="M 32.48 48.8618C 42.6333 45.6823 50 36.2015 50 25C 50 11.1929 38.8071 0 25 0C 11.1929 0 0 11.1929 0 25C 0 36.2015 7.3667 45.6823 17.52 48.8618L 25 67L 32.48 48.8618Z"/>
<path id="path1_fill" d="M 40 20C 40 31.0457 31.0457 40 20 40C 8.9543 40 0 31.0457 0 20C 0 8.9543 8.9543 0 20 0C 31.0457 0 40 8.9543 40 20Z"/>
<path id="path2_fill" d="M 6.71855 19.4489C 7.8262 19.4489 8.75227 19.1111 9.44228 18.4178C 10.1323 17.7422 10.4955 16.8533 10.4955 15.7511C 10.4955 14.72 10.2231 13.9022 9.67834 13.3333C 9.13359 12.7644 8.4799 12.48 7.69909 12.48C 7.22698 12.48 6.84565 12.5333 6.55512 12.64C 6.26459 12.7467 6.01038 12.8711 5.82879 13.0311L 5.32036 13.5822L 5.04799 13.44C 5.13878 12.9244 5.28405 12.48 5.50195 12.0711C 5.68353 11.7333 5.9559 11.4133 6.30091 11.1289C 6.64591 10.8444 7.11803 10.7022 7.71725 10.7022C 8.11673 10.7022 8.47989 10.7378 8.80674 10.8267C 9.13359 10.9156 9.4786 11.0044 9.8236 11.1111C 10.1686 11.2178 10.5136 11.3244 10.8768 11.3956C 11.2218 11.4844 11.6213 11.52 12.0571 11.52C 12.3294 11.52 12.5837 11.4667 12.7834 11.36L 13.31 10.9689L 13.7276 10.4178L 14 10.4178C 13.9274 11.04 13.7458 11.52 13.4371 11.8578C 13.1466 12.1956 12.8197 12.4444 12.4929 12.5867C 12.0934 12.7644 11.6757 12.8711 11.2036 12.8889C 11.3489 13.0311 11.4942 13.2089 11.6213 13.44C 11.7121 13.6356 11.8029 13.8844 11.8936 14.1689C 11.9844 14.4533 12.0389 14.8089 12.0389 15.2178C 12.0389 15.84 11.8936 16.4267 11.6213 17.0133C 11.3307 17.5822 10.9494 18.0978 10.441 18.5422C 9.93255 18.9867 9.35149 19.3422 8.66148 19.6089C 7.98962 19.8756 7.24513 20 6.44617 20C 5.46563 20 4.57588 19.8578 3.77691 19.5556C 2.97795 19.2711 2.30609 18.8622 1.74319 18.3644C 1.18028 17.8667 0.762644 17.2622 0.453954 16.5867C 0.163422 15.9111 -2.21658e-06 15.1644 -2.21658e-06 14.3822C -2.21658e-06 13.76 0.072633 13.2089 0.217899 12.7111C 0.363165 12.2133 0.562908 11.7867 0.798965 11.4133C 1.03502 11.04 1.3074 10.72 1.61609 10.4356C 1.92478 10.1689 2.23346 9.93778 2.56031 9.76C 3.3048 9.31556 4.1764 9.03111 5.15694 8.90667C 4.32166 8.78222 3.57717 8.53333 2.92348 8.19556C 2.6511 8.05333 2.36057 7.87556 2.10635 7.64444C 1.83398 7.43111 1.59792 7.16444 1.39818 6.88C 1.19844 6.59556 1.01686 6.24 0.889756 5.84889C 0.762648 5.45778 0.690014 5.01333 0.690014 4.51556C 0.690014 3.85778 0.817122 3.25333 1.05318 2.70222C 1.28924 2.15111 1.63424 1.68889 2.08819 1.28C 2.54215 0.871111 3.0869 0.568889 3.75875 0.337778C 4.41245 0.106667 5.1751 -5.29818e-10 6.01038 -5.29818e-10C 6.80934 -5.29818e-10 7.51751 0.106667 8.15305 0.32C 8.77043 0.533333 9.29702 0.8 9.73281 1.15556C 10.1505 1.49333 10.4955 1.90222 10.7134 2.36444C 10.9313 2.82667 11.0402 3.32444 11.0402 3.82222L 11.0039 4.37333L 10.9131 4.76444L 10.7678 5.06667L 8.38911 4.51556L 8.53437 4.10667L 8.62516 3.71556L 8.66148 3.28889C 8.66148 2.32889 8.42542 1.6 7.97147 1.12C 7.51751 0.64 6.84565 0.408889 6.01038 0.408889C 5.61089 0.408889 5.24773 0.497778 4.88457 0.675556C 4.5214 0.853333 4.21271 1.10222 3.94034 1.44C 3.66796 1.77778 3.45007 2.20444 3.3048 2.72C 3.14138 3.23556 3.06874 3.84 3.06874 4.51556C 3.06874 5.95556 3.37743 7.00444 3.97666 7.64444C 4.57588 8.28444 5.44747 8.62222 6.55512 8.62222L 7.11803 8.62222L 7.11803 9.17333L 6.55512 9.17333C 5.35668 9.17333 4.41245 9.58222 3.70428 10.3822C 2.99611 11.2 2.6511 12.5156 2.6511 14.3644C 2.6511 16.16 3.01427 17.44 3.72244 18.24C 4.44877 19.0578 5.44747 19.4489 6.71855 19.4489Z"/>
</defs>
</svg>
