<svg width="100" height="100" viewBox="0 0 100 100" version="1.1" xmlns="http://www.w3.org/2000/svg" xmlns:xlink="http://www.w3.org/1999/xlink">
<title>play</title>
<desc>Created using Figma</desc>
<g id="Canvas" transform="translate(-5283 -4350)">
<g id="play">
<g id="Ellipse">
<use xlink:href="#path0_fill" transform="translate(5283 4350)" fill="#231F20" fill-opacity="0.75"/>
<mask id="mask0_outline_ins">
<use xlink:href="#path0_fill" fill="white" transform="translate(5283 4350)"/>
</mask>
<g mask="url(#mask0_outline_ins)">
<use xlink:href="#path1_stroke_2x" transform="translate(5283 4350)" fill="#FFFFFF"/>
</g>
</g>
<g id="Polygon">
<use xlink:href="#path2_fill" transform="matrix(6.12323e-17 1 -1 6.12323e-17 5350 4382)" fill="#FFFFFF"/>
</g>
</g>
</g>
<defs>
<path id="path0_fill" d="M 100 50C 100 77.6142 77.6142 100 50 100C 22.3858 100 0 77.6142 0 50C 0 22.3858 22.3858 0 50 0C 77.6142 0 100 22.3858 100 50Z"/>
<path id="path1_stroke_2x" d="M 97 50C 97 75.9574 75.9574 97 50 97L 50 103C 79.2711 103 103 79.2711 103 50L 97 50ZM 50 97C 24.0426 97 3 75.9574 3 50L -3 50C -3 79.2711 20.7289 103 50 103L 50 97ZM 3 50C 3 24.0426 24.0426 3 50 3L 50 -3C 20.7289 -3 -3 20.7289 -3 50L 3 50ZM 50 3C 75.9574 3 97 24.0426 97 50L 103 50C 103 20.7289 79.2711 -3 50 -3L 50 3Z"/>
<path id="path2_fill" d="M 17.5 0L 32.6554 26.25L 2.34456 26.25L 17.5 0Z"/>
</defs>
</svg>
