<svg width="36" height="36" viewBox="0 0 36 36" version="1.1" xmlns="http://www.w3.org/2000/svg" xmlns:xlink="http://www.w3.org/1999/xlink">
<title>&#208;&#158; &#208;&#150;&#208;&#163;&#208;&#160;&#208;&#157;&#208;&#144;&#208;&#155;&#208;&#149;</title>
<desc>Created using Figma</desc>
<g id="Canvas" transform="translate(-1074 -3840)">
<g id="&#208;&#158; &#208;&#150;&#208;&#163;&#208;&#160;&#208;&#157;&#208;&#144;&#208;&#155;&#208;&#149;">
<use xlink:href="#path0_fill" transform="translate(1072 3838)" fill="#231F20"/>
</g>
</g>
<defs>
<path id="path0_fill" d="M 15.0525 10.45C 16.1025 10.45 16.9525 11.35 16.9525 12.4C 16.9525 13.45 16.1025 14.3 15.0525 14.3C 14.0025 14.3 13.1525 13.45 13.1525 12.4C 13.1525 11.35 14.0025 10.45 15.0525 10.45ZM 18.1025 15.45L 21.2025 15.45L 21.2025 15.95C 22.4025 15.35 24.0525 15.45 25.2025 16.05C 26.4525 16.75 27.3025 18.25 27.3025 19.65L 27.3025 26.2L 24.2525 26.2L 24.2525 19.65C 24.2525 19.35 23.9525 18.85 23.7025 18.75C 22.5025 18.05 21.2025 19.3 21.2025 19.3L 21.2025 26.2L 18.1025 26.2L 18.1025 15.45ZM 16.6025 26.2L 13.5025 26.2L 13.5025 15.45L 16.6025 15.45L 16.6025 26.2ZM 20.0025 38C 29.7025 38 37.6025 30.1 37.6025 20.4C 37.6025 10.7 29.7025 2.85 20.0025 2.85C 10.3025 2.85 2.45254 10.7 2.45254 20.4C 2.45254 30.1 10.3025 38 20.0025 38Z"/>
</defs>
</svg>
